<?xml version="1.0" encoding="UTF-8" standalone="no"?>
<!-- Created with Inkscape (http://www.inkscape.org/) -->

<svg
   xmlns:dc="http://purl.org/dc/elements/1.1/"
   xmlns:cc="http://creativecommons.org/ns#"
   xmlns:rdf="http://www.w3.org/1999/02/22-rdf-syntax-ns#"
   xmlns:svg="http://www.w3.org/2000/svg"
   xmlns="http://www.w3.org/2000/svg"
   xmlns:sodipodi="http://sodipodi.sourceforge.net/DTD/sodipodi-0.dtd"
   xmlns:inkscape="http://www.inkscape.org/namespaces/inkscape"
   id="svg2"
   version="1.1"
   inkscape:version="0.91 r13725"
   xml:space="preserve"
   width="467.5"
   height="92.5"
   viewBox="0 0 467.5 92.5"
   sodipodi:docname="logoDT1.svg"><metadata
     id="metadata8"><rdf:RDF><cc:Work
         rdf:about=""><dc:format>image/svg+xml</dc:format><dc:type
           rdf:resource="http://purl.org/dc/dcmitype/StillImage" /><dc:title></dc:title></cc:Work></rdf:RDF></metadata><defs
     id="defs6" /><sodipodi:namedview
     pagecolor="#ffffff"
     bordercolor="#666666"
     borderopacity="1"
     objecttolerance="10"
     gridtolerance="10"
     guidetolerance="10"
     inkscape:pageopacity="0"
     inkscape:pageshadow="2"
     inkscape:window-width="793"
     inkscape:window-height="480"
     id="namedview4"
     showgrid="false"
     inkscape:zoom="0.81283422"
     inkscape:cx="70.125"
     inkscape:cy="46.25"
     inkscape:window-x="0"
     inkscape:window-y="0"
     inkscape:window-maximized="0"
     inkscape:current-layer="g10" /><g
     id="g10"
     inkscape:groupmode="layer"
     inkscape:label="ink_ext_XXXXXX"
     transform="matrix(1.25,0,0,-1.25,0,92.5)"><g
       id="g12"
       transform="scale(0.1,0.1)"><path
         d="m 62.7305,179.34 c 10.3906,0 19.3789,-1.801 26.8789,-5.32 7.582,-3.43 13.7886,-8.282 18.5896,-14.532 4.891,-6.25 8.481,-13.59 10.781,-22.027 2.391,-8.441 3.598,-17.621 3.598,-27.5 0,-10.5508 -1.207,-20.1212 -3.598,-28.7501 -2.421,-8.5507 -6.089,-15.9023 -11.089,-22.0312 -4.922,-6.168 -11.0512,-10.8984 -18.4418,-14.2188 -7.3008,-3.3203 -15.8594,-5 -25.6211,-5 l -37.9687,0 c -4.6875,0 -7.7383,0.7774 -9.0586,2.3399 -1.25,1.5703 -1.8789,3.789 -1.8789,6.7187 l 0,121.4105 c 0,2.89 0.5469,5.082 1.7187,6.558 1.25,1.563 4.3008,2.352 9.2188,2.352 l 36.8711,0 z m -21.711,-118.6017 22.8086,0 c 21.8711,0 32.8125,16.6015 32.8125,49.8517 0,7.57 -0.6211,14.371 -1.8711,20.308 -1.1797,6.012 -3.25,11.09 -6.25,15.153 -2.9297,4.07 -6.8007,7.109 -11.5703,9.219 -4.8008,2.191 -10.8594,3.281 -18.1211,3.281 l -17.8086,0 0,-97.8127 z"
         style="fill:#000000;fill-opacity:1;fill-rule:nonzero;stroke:none"
         id="path14"
         inkscape:connector-curvature="0" /><path
         d="m 166.172,48.3984 c 0,-2.5 -1.172,-4.8476 -3.442,-7.0273 -2.179,-2.2695 -5.269,-3.4414 -9.21,-3.4414 -3.872,0 -6.961,1.0898 -9.219,3.2812 -2.192,2.0704 -3.281,4.4493 -3.281,7.1875 l 0,87.9726 c 0,4.059 1.281,6.949 3.902,8.75 2.699,1.867 5.547,2.809 8.598,2.809 3.121,0 5.968,-0.899 8.589,-2.66 2.692,-1.79 4.063,-4.758 4.063,-8.899 l 0,-87.9726 z m -26.25,123.5896 c 0,3.832 1.289,7.071 3.906,9.692 2.582,2.582 5.82,3.91 9.692,3.91 3.941,0 7.179,-1.328 9.679,-3.91 2.582,-2.621 3.91,-5.86 3.91,-9.692 0,-3.867 -1.328,-7.109 -3.91,-9.687 -2.5,-2.61 -5.738,-3.903 -9.679,-3.903 -3.872,0 -7.11,1.293 -9.692,3.903 -2.617,2.578 -3.906,5.82 -3.906,9.687 z"
         style="fill:#000000;fill-opacity:1;fill-rule:nonzero;stroke:none"
         id="path16"
         inkscape:connector-curvature="0" /><path
         d="m 279.77,45.1211 c 0,-6.0195 -1.329,-11.6016 -3.911,-16.7227 -2.621,-5.0781 -6.168,-9.4179 -10.629,-12.9687 -4.371,-3.5195 -9.679,-6.16798 -15.929,-7.96876 -6.18,-1.8711 -12.821,-2.73047 -20,-2.66016 -5,0 -9.301,0.32031 -12.821,0.9375 -3.55,0.55078 -6.679,1.3711 -9.371,2.5 -2.73,1.17188 -5.121,2.46092 -7.187,3.91012 -2.113,1.3711 -4.184,2.8125 -6.25,4.3711 -1.25,0.9414 -2.461,2 -3.594,3.1289 -1.168,1.1719 -2.027,2.461 -2.656,3.9024 -0.543,1.4883 -0.781,3.2109 -0.781,5.1601 0.078,1.8789 0.781,4.1407 2.031,6.7188 1.449,3.0508 3.316,4.7695 5.629,5.1601 2.379,0.3086 4.879,-0.6679 7.5,-2.9687 3.199,-2.8203 7.027,-5.1992 11.398,-7.1914 4.379,-1.9492 10.321,-2.8477 17.821,-2.6602 3.75,0 7.07,0.5899 10,1.7188 2.89,1.0625 5.308,2.4609 7.179,4.2226 1.961,1.6797 3.481,3.5586 4.531,5.6289 1.02,2.1094 1.571,3.9805 1.571,5.7813 l 0,14.0586 c -2.313,-6.0586 -5.942,-10.5508 -10.942,-13.4414 -4.918,-2.8086 -10.629,-4.2188 -17.187,-4.2188 -6.481,0 -12.422,1.1407 -17.813,3.4414 -5.429,2.3789 -10.078,5.8594 -13.91,10.4688 -3.859,4.6914 -6.871,10.3516 -9.058,17.0312 -2.11,6.7579 -3.121,14.5274 -3.121,23.2774 0,10.8207 1.171,19.7307 3.589,26.7227 2.5,6.949 5.782,12.5 9.84,16.559 4.071,4.07 8.75,6.878 14.071,8.441 5.39,1.641 10.968,2.5 16.71,2.5 6.329,0 11.961,-1.723 16.879,-5.16 5,-3.352 8.75,-8.391 11.25,-15.153 l 0,7.973 c 0,2.07 1.012,4.289 3.121,6.719 2.071,2.379 5.239,3.59 9.54,3.59 4.25,0 7.378,-1.211 9.371,-3.59 2.07,-2.43 3.129,-4.649 3.129,-6.719 l 0,-92.4999 z m -71.719,51.0898 c 0,-5.8593 0.539,-10.6992 1.719,-14.5312 1.128,-3.75 2.73,-6.8399 4.839,-9.2188 2.192,-2.3007 4.731,-3.9101 7.661,-4.8398 3,-0.9414 6.402,-1.4102 10.152,-1.4102 7.578,0 13.168,2.3399 16.719,7.0274 3.629,4.7734 5.39,12.3828 5.308,22.8125 -0.109,20.9372 -7.609,31.4882 -22.5,31.7192 -7.179,0.082 -13.039,-2.301 -17.5,-7.18 -4.371,-4.809 -6.519,-12.93 -6.398,-24.3791 z"
         style="fill:#000000;fill-opacity:1;fill-rule:nonzero;stroke:none"
         id="path18"
         inkscape:connector-curvature="0" /><path
         d="m 325.551,48.3984 c 0,-2.5 -1.172,-4.8476 -3.442,-7.0273 -2.187,-2.2695 -5.269,-3.4414 -9.218,-3.4414 -3.871,0 -6.95,1.0898 -9.219,3.2812 -2.192,2.0704 -3.281,4.4493 -3.281,7.1875 l 0,87.9726 c 0,4.059 1.289,6.949 3.91,8.75 2.687,1.867 5.539,2.809 8.59,2.809 3.129,0 5.98,-0.899 8.589,-2.66 2.7,-1.79 4.071,-4.758 4.071,-8.899 l 0,-87.9726 z m -26.25,123.5896 c 0,3.832 1.289,7.071 3.898,9.692 2.582,2.582 5.821,3.91 9.692,3.91 3.949,0 7.187,-1.328 9.687,-3.91 2.582,-2.621 3.902,-5.86 3.902,-9.692 0,-3.867 -1.32,-7.109 -3.902,-9.687 -2.5,-2.61 -5.738,-3.903 -9.687,-3.903 -3.871,0 -7.11,1.293 -9.692,3.903 -2.609,2.578 -3.898,5.82 -3.898,9.687 z"
         style="fill:#000000;fill-opacity:1;fill-rule:nonzero;stroke:none"
         id="path20"
         inkscape:connector-curvature="0" /><path
         d="m 382.73,123.398 0,-44.8472 c 0,-3.75 0.161,-6.832 0.469,-9.211 0.321,-2.4296 0.821,-4.3398 1.571,-5.789 0.82,-1.3594 1.949,-2.3008 3.429,-2.8125 1.571,-0.5391 3.641,-0.7774 6.25,-0.7774 2.391,0 4.77,0.6602 7.192,2.0274 2.379,1.332 4.609,2.5 6.718,3.4414 2.379,1.0195 4.532,0.9805 6.411,-0.1602 1.871,-1.1679 2.808,-3.5898 2.808,-7.3398 0,-3.668 -0.738,-6.7188 -2.187,-9.2188 -1.481,-2.5 -3.512,-4.5312 -6.09,-6.0898 -2.5,-1.4492 -5.473,-2.5391 -8.91,-3.2813 -3.36,-0.7109 -6.993,-1.1796 -10.942,-1.4101 -4.488,-0.0781 -8.668,0.2305 -12.5,0.9414 -3.859,0.7383 -7.258,2.1484 -10.148,4.2187 -2.821,2.1797 -5.082,5.0704 -6.723,8.75 -1.68,3.75 -2.5,8.5118 -2.5,14.3711 l 0,57.1871 -7.969,0 c -3.75,0 -6.25,1.012 -7.5,3.122 -1.25,2.07 -1.879,5.039 -1.879,8.91 0,3.949 0.551,6.761 1.719,8.441 1.25,1.75 3.602,2.649 7.031,2.649 l 8.598,0 0,10.468 c 0,4.262 0.781,7.422 2.344,9.532 1.558,2.191 5.039,3.281 10.469,3.281 5.629,0 9.058,-0.93 10.308,-2.813 1.332,-1.789 2.031,-4.367 2.031,-7.808 l 0,-12.66 20.942,0 c 4.566,0 7.539,-0.899 8.906,-2.649 1.442,-1.801 2.223,-4.609 2.344,-8.441 0.199,-3.871 -0.543,-6.84 -2.192,-8.91 -1.558,-2.11 -4.921,-3.122 -10,-3.122 l -20,0 z"
         style="fill:#000000;fill-opacity:1;fill-rule:nonzero;stroke:none"
         id="path22"
         inkscape:connector-curvature="0" /><path
         d="m 450.469,92.4609 c 0.082,-12.1914 2.261,-20.9414 6.562,-26.25 4.379,-5.3125 10.391,-7.9726 18.129,-7.9726 7.809,0 13.469,3.0117 17.031,9.0625 3.629,6.0195 5.348,14.3008 5.149,24.8476 -0.11,10.8206 -1.988,19.4106 -5.621,25.7816 -3.668,6.332 -9.297,9.609 -16.879,9.84 -7.61,0.082 -13.668,-2.77 -18.121,-8.59 -4.379,-5.739 -6.489,-14.649 -6.25,-26.7191 z m 46.41,-37.6601 c -3.129,-6.7891 -7,-11.4024 -11.57,-13.9024 -4.489,-2.5781 -10,-3.9101 -16.559,-3.9101 -6.48,0 -12.422,1.25 -17.809,3.75 -5.429,2.3828 -10.082,5.9414 -13.91,10.6328 -3.871,4.7578 -6.871,10.6172 -9.062,17.5 -2.11,6.8672 -3.129,14.7187 -3.129,23.5898 0,10.6991 1.18,19.7301 3.601,27.0271 2.5,7.391 5.778,13.321 9.84,17.813 4.059,4.578 8.75,7.82 14.059,9.687 5.39,1.961 10.98,2.973 16.719,2.973 6.332,0 11.961,-1.801 16.882,-5.313 5,-3.558 8.75,-8.707 11.25,-15.468 l 0,8.441 c 0,2.07 1.008,4.289 3.118,6.719 2.07,2.379 5.242,3.59 9.531,3.59 4.262,-0.121 7.39,-1.371 9.379,-3.75 2.07,-2.301 3.121,-4.489 3.121,-6.559 l 0,-89.0702 c 0,-2.1016 -0.86,-4.2891 -2.5,-6.5625 -1.68,-2.3789 -5.11,-3.6289 -10.309,-3.75 -2.621,0 -4.761,0.3125 -6.41,0.9414 -1.562,0.6211 -2.891,1.5195 -3.902,2.6601 -0.938,1.0118 -1.559,2.1094 -1.879,3.2813 -0.309,1.25 -0.461,2.3789 -0.461,3.4297 l 0,6.25 z"
         style="fill:#000000;fill-opacity:1;fill-rule:nonzero;stroke:none"
         id="path24"
         inkscape:connector-curvature="0" /><path
         d="m 538.75,180.738 c 0,3.133 0.98,5.512 2.969,7.192 1.953,1.64 5.191,2.5 9.691,2.5 4.57,0 7.809,-0.899 9.68,-2.66 1.961,-1.79 2.969,-4.18 2.969,-7.18 l 0,-134.2189 c 0,-2.4219 -1.168,-4.3828 -3.438,-5.9414 -2.301,-1.6406 -5.391,-2.5 -9.211,-2.5 -3.871,0 -6.961,0.8594 -9.219,2.5 -2.312,1.5586 -3.441,3.5195 -3.441,5.9414 l 0,134.3669 z"
         style="fill:#000000;fill-opacity:1;fill-rule:nonzero;stroke:none"
         id="path26"
         inkscape:connector-curvature="0" /><path
         d="m 669.84,123.398 0,-44.8472 c 0,-3.75 0.16,-6.832 0.469,-9.211 0.312,-2.4296 0.82,-4.3398 1.57,-5.789 0.82,-1.3594 1.953,-2.3008 3.43,-2.8125 1.57,-0.5391 3.64,-0.7774 6.25,-0.7774 2.39,0 4.773,0.6602 7.191,2.0274 2.379,1.332 4.609,2.5 6.719,3.4414 2.383,1.0195 4.531,0.9805 6.41,-0.1602 1.871,-1.1679 2.812,-3.5898 2.812,-7.3398 0,-3.668 -0.742,-6.7188 -2.191,-9.2188 -1.48,-2.5 -3.52,-4.5312 -6.09,-6.0898 -2.5,-1.4492 -5.469,-2.5391 -8.91,-3.2813 -3.359,-0.7109 -6.988,-1.1796 -10.941,-1.4101 -4.489,-0.0781 -8.668,0.2305 -12.5,0.9414 -3.86,0.7383 -7.258,2.1484 -10.149,4.2187 -2.82,2.1797 -5.078,5.0704 -6.719,8.75 -1.679,3.75 -2.5,8.5118 -2.5,14.3711 l 0,57.1871 -7.972,0 c -3.75,0 -6.25,1.012 -7.5,3.122 -1.25,2.07 -1.879,5.039 -1.879,8.91 0,3.949 0.551,6.761 1.719,8.441 1.25,1.75 3.601,2.649 7.031,2.649 l 8.601,0 0,10.468 c 0,4.262 0.778,7.422 2.34,9.532 1.559,2.191 5.039,3.281 10.469,3.281 5.621,0 9.059,-0.93 10.309,-2.813 1.332,-1.789 2.031,-4.367 2.031,-7.808 l 0,-12.66 20.941,0 c 4.571,0 7.539,-0.899 8.91,-2.649 1.438,-1.801 2.219,-4.609 2.34,-8.441 0.199,-3.871 -0.551,-6.84 -2.191,-8.91 -1.559,-2.11 -4.918,-3.122 -10,-3.122 l -20,0 z"
         style="fill:#000000;fill-opacity:1;fill-rule:nonzero;stroke:none"
         id="path28"
         inkscape:connector-curvature="0" /><path
         d="m 749.141,75.7383 19.379,62.4997 c 0.929,2.813 2.5,5.082 4.679,6.883 2.192,1.867 4.61,2.809 7.352,2.809 2.57,0 5,-0.899 7.179,-2.66 2.27,-1.79 3.911,-4.141 4.852,-7.032 l 19.367,-62.1872 18.602,63.1292 c 0.699,2.699 2.109,4.84 4.219,6.41 2.179,1.558 4.609,2.34 7.339,2.34 1.95,0 3.629,-0.27 5,-0.782 1.332,-0.546 2.379,-1.207 3.121,-2.027 0.821,-0.742 1.411,-1.57 1.719,-2.5 0.391,-0.941 0.672,-1.84 0.781,-2.66 0.2,-1.051 0.04,-2.66 -0.46,-4.84 -0.551,-2.109 -1.059,-3.871 -1.571,-5.32 L 823.98,49.6484 c -1.171,-3.5586 -2.808,-6.3671 -5,-8.4375 -2.101,-2.1914 -4.601,-3.2812 -7.5,-3.2812 -3.98,0 -7.031,1.4805 -9.21,4.3711 -2.188,3.0078 -3.872,6.25 -5,9.6875 l -16.719,56.5627 -17.66,-56.5627 c -1.172,-3.75 -2.809,-7.0274 -5,-9.8399 -2.11,-2.8086 -5,-4.2187 -8.75,-4.2187 -2.621,0 -5.082,1.0508 -7.34,3.1211 -2.192,1.9609 -3.992,4.8906 -5.321,8.75 l -26.398,80.0002 c -0.551,1.449 -1.062,3.211 -1.562,5.32 -0.551,2.18 -0.711,3.789 -0.469,4.84 0.187,0.82 0.469,1.719 0.781,2.66 0.309,0.93 0.816,1.758 1.559,2.5 0.82,0.82 1.91,1.481 3.281,2.027 1.328,0.512 3.008,0.782 5,0.782 2.699,0 5.078,-0.782 7.187,-2.34 2.192,-1.57 3.629,-3.711 4.371,-6.41 l 18.911,-63.4417 z"
         style="fill:#000000;fill-opacity:1;fill-rule:nonzero;stroke:none"
         id="path30"
         inkscape:connector-curvature="0" /><path
         d="m 891.559,48.3984 c 0,-2.5 -1.168,-4.8476 -3.438,-7.0273 -2.18,-2.2695 -5.269,-3.4414 -9.211,-3.4414 -3.871,0 -6.961,1.0898 -9.219,3.2812 -2.191,2.0704 -3.281,4.4493 -3.281,7.1875 l 0,87.9726 c 0,4.059 1.289,6.949 3.899,8.75 2.703,1.867 5.55,2.809 8.601,2.809 3.121,0 5.969,-0.899 8.59,-2.66 2.699,-1.79 4.059,-4.758 4.059,-8.899 l 0,-87.9726 z m -26.25,123.5896 c 0,3.832 1.293,7.071 3.91,9.692 2.582,2.582 5.82,3.91 9.691,3.91 3.942,0 7.18,-1.328 9.68,-3.91 2.582,-2.621 3.91,-5.86 3.91,-9.692 0,-3.867 -1.328,-7.109 -3.91,-9.687 -2.5,-2.61 -5.738,-3.903 -9.68,-3.903 -3.871,0 -7.109,1.293 -9.691,3.903 -2.617,2.578 -3.91,5.82 -3.91,9.687 z"
         style="fill:#000000;fill-opacity:1;fill-rule:nonzero;stroke:none"
         id="path32"
         inkscape:connector-curvature="0" /><path
         d="m 980,101.988 c 0,4.262 -0.27,8.012 -0.781,11.25 -0.547,3.321 -1.52,6.024 -2.969,8.133 -1.371,2.18 -3.359,3.789 -5.941,4.84 -2.5,1.019 -5.7,1.559 -9.528,1.559 -3.242,0 -6.211,-0.391 -8.902,-1.09 -2.738,-0.629 -5.078,-1.84 -7.039,-3.59 -1.871,-1.801 -3.391,-4.34 -4.531,-7.66 -1.168,-3.239 -1.719,-7.418 -1.719,-12.5 l 0,-56.5589 c 0,-2.3125 -1.211,-4.3008 -3.59,-5.9414 -2.301,-1.6406 -5.23,-2.5 -8.75,-2.5 -3.672,0 -6.68,0.9023 -9.059,2.6601 -2.312,1.75 -3.441,3.6719 -3.441,5.7813 l 0,93.2769 c 0,2.383 1.25,4.372 3.75,5.942 2.5,1.558 5.469,2.34 8.91,2.34 3.43,0 6.289,-0.782 8.59,-2.34 2.379,-1.57 3.59,-3.559 3.59,-5.942 l 0,-9.847 c 1.25,2.39 2.699,4.769 4.379,7.187 1.64,2.391 3.633,4.532 5.941,6.41 2.262,1.954 4.918,3.512 7.969,4.692 3,1.25 6.441,1.871 10.312,1.871 5.7,0 10.86,-0.859 15.469,-2.5 4.68,-1.563 8.629,-3.91 11.871,-7.031 3.199,-3.129 5.699,-7.11 7.499,-11.879 1.88,-4.801 2.81,-10.391 2.81,-16.711 l 0,-65.4689 c 0,-2.4219 -1.09,-4.3828 -3.28,-5.9414 -2.181,-1.6406 -5.15,-2.5 -8.9,-2.5 -3.75,0 -6.84,0.8594 -9.219,2.5 -2.312,1.5586 -3.441,3.5195 -3.441,5.9414 l 0,55.6169 z"
         style="fill:#000000;fill-opacity:1;fill-rule:nonzero;stroke:none"
         id="path34"
         inkscape:connector-curvature="0" /><path
         d="m 1060.55,59.1797 c 4.37,0 8.04,0.9805 11.09,2.9687 3.01,1.9532 4.53,4.7618 4.53,8.4414 0,1.5586 -0.31,2.961 -0.94,4.211 -0.62,1.3281 -1.79,2.539 -3.43,3.5976 -1.68,1.1329 -3.99,2.2618 -6.88,3.4414 -2.81,1.129 -6.48,2.379 -10.94,3.75 -5.62,1.5586 -10.46,3.1993 -14.53,5 -3.98,1.75 -7.26,3.8204 -9.84,6.25 -2.62,2.379 -4.53,5.2302 -5.78,8.5902 -1.25,3.32 -1.88,7.34 -1.88,12.031 0,4.879 0.98,9.258 2.97,13.129 1.96,3.941 4.73,7.262 8.28,10 3.52,2.808 7.66,4.879 12.35,6.25 4.68,1.441 9.61,2.18 14.84,2.18 5.39,0 10.39,-0.622 15,-1.872 4.69,-1.168 8.63,-2.66 11.88,-4.527 3.2,-1.883 5.78,-3.91 7.65,-6.101 1.88,-2.11 2.81,-4.02 2.81,-5.782 0,-3.976 -0.7,-7.648 -2.03,-11.09 -1.25,-3.359 -3.4,-5 -6.4,-5 -0.94,0 -1.88,0.352 -2.82,1.09 -0.86,0.711 -2.14,1.801 -3.9,3.282 -3.13,2.39 -6.21,4.3 -9.22,5.781 -3.05,1.449 -7.31,2.23 -12.81,2.347 -3.44,0.192 -6.64,-0.468 -9.53,-2.027 -2.82,-1.492 -4.22,-3.91 -4.22,-7.351 0,-1.559 0.31,-2.93 0.93,-4.059 0.71,-1.051 1.92,-1.992 3.6,-2.813 1.76,-0.859 3.98,-1.718 6.72,-2.66 2.69,-0.937 6.17,-2.027 10.47,-3.277 4.57,-1.371 8.82,-2.93 12.81,-4.691 4.06,-1.6802 7.54,-3.8208 10.47,-6.3989 2.89,-2.5 5.19,-5.5898 6.87,-9.2227 1.64,-3.6679 2.5,-8.0898 2.5,-13.2773 0,-5.3203 -1.21,-10.1211 -3.59,-14.3828 -2.42,-4.2891 -5.59,-7.8867 -9.53,-10.7774 -3.99,-2.9296 -8.4,-5.1601 -13.28,-6.7226 -4.93,-1.6367 -9.93,-2.5 -15,-2.5 -6.06,0 -11.57,0.8633 -16.57,2.5 -5,1.5625 -9.22,3.4414 -12.65,5.6328 -3.44,2.1797 -6.17,4.4102 -8.13,6.7187 -1.87,2.379 -2.81,4.3711 -2.81,5.9297 0,1.5703 0.08,3.211 0.31,5 0.31,1.8789 0.78,3.5196 1.41,5 0.7,1.5703 1.56,2.8516 2.5,3.9102 1.01,1.1289 2.34,1.7187 3.9,1.7187 1.33,0 2.74,-0.7382 4.22,-2.1875 1.45,-1.4804 3.32,-3.1211 5.63,-5 2.38,-1.8007 5.39,-3.4023 9.06,-4.8398 3.63,-1.4922 8.28,-2.1914 13.91,-2.1914 z"
         style="fill:#000000;fill-opacity:1;fill-rule:nonzero;stroke:none"
         id="path36"
         inkscape:connector-curvature="0" /><path
         d="m 1174.92,149.02 0,7.031 c 0,7.39 1.1,13.328 3.28,17.82 2.27,4.57 5.32,8.039 9.07,10.469 3.82,2.379 8.28,3.98 13.28,4.84 5,0.82 10.19,1.25 15.62,1.25 l 6.88,0 c 2.5,0 4.84,-0.739 7.03,-2.192 2.19,-1.359 3.28,-4.179 3.28,-8.437 0,-4.289 -1.02,-7.141 -2.97,-8.59 -1.87,-1.371 -3.98,-2.031 -6.25,-2.031 l -5.62,0 c -4.3,0 -7.62,-0.629 -10,-1.879 -2.43,-1.25 -4.22,-2.731 -5.47,-4.371 -1.25,-1.68 -2.03,-3.399 -2.35,-5.16 -0.31,-1.79 -0.47,-3.079 -0.47,-3.899 l 0,-4.851 20.16,0 c 3.32,0 5.82,-0.782 7.5,-2.34 1.64,-1.559 2.5,-4.379 2.5,-8.442 0,-4.179 -0.9,-6.988 -2.66,-8.437 -1.68,-1.36 -4.06,-2.031 -7.18,-2.031 l -20.32,0 0,-81.3989 c 0,-2.3125 -1.17,-4.3008 -3.43,-5.9414 -2.31,-1.6406 -5.43,-2.5 -9.38,-2.5 -4.06,0 -7.19,0.8594 -9.37,2.5 -2.11,1.5586 -3.13,3.5195 -3.13,5.9414 l 0,81.3989 -9.69,0 c -2.3,0 -4.29,0.55 -5.93,1.718 -1.68,1.133 -2.5,4.102 -2.5,8.91 0,4.762 0.93,7.731 2.81,8.903 1.87,1.14 4.3,1.719 7.34,1.719 l 7.97,0 z"
         style="fill:#000000;fill-opacity:1;fill-rule:nonzero;stroke:none"
         id="path38"
         inkscape:connector-curvature="0" /><path
         d="m 1291.64,149.961 c 9.14,0 17.03,-1.481 23.59,-4.371 6.57,-2.93 11.88,-7 15.94,-12.192 4.06,-5.238 7.03,-11.367 8.91,-18.437 1.95,-7.109 2.97,-14.691 2.97,-22.8126 0,-8.2382 -1.02,-15.7773 -2.97,-22.6601 -1.88,-6.8672 -4.96,-12.8086 -9.22,-17.8086 -4.18,-4.918 -9.49,-8.7109 -15.94,-11.4102 -6.48,-2.8086 -14.22,-4.2187 -23.28,-4.2187 -9.06,0 -16.84,1.4883 -23.28,4.3789 -6.37,2.8086 -11.64,6.7187 -15.78,11.7187 -4.06,5 -7.03,10.9414 -8.91,17.8125 -1.87,6.9493 -2.81,14.5274 -2.81,22.6602 0,8.1169 0.94,15.6599 2.81,22.6489 1.88,6.96 4.77,13.011 8.75,18.128 3.95,5.192 9.14,9.262 15.63,12.192 6.56,2.89 14.41,4.371 23.59,4.371 z m 0,-91.7227 c 8.95,0 15.51,2.9726 19.69,8.9101 4.14,5.9414 6.25,14.2618 6.25,25 0,10.8206 -2.03,19.4536 -6.1,25.9416 -3.98,6.441 -10.74,9.68 -20.31,9.68 -4.8,0 -8.83,-0.93 -12.03,-2.809 -3.12,-1.871 -5.7,-4.449 -7.66,-7.66 -1.87,-3.121 -3.24,-6.832 -4.06,-11.09 -0.86,-4.301 -1.25,-8.8321 -1.25,-13.5899 0,-10.8594 1.95,-19.3008 5.94,-25.3203 4.06,-6.0508 10.55,-9.0625 19.53,-9.0625 z"
         style="fill:#000000;fill-opacity:1;fill-rule:nonzero;stroke:none"
         id="path40"
         inkscape:connector-curvature="0" /><path
         d="m 1411.48,127.77 c -4.6,0 -8.67,-0.891 -12.18,-2.649 -3.56,-1.68 -6.53,-4.07 -8.91,-7.191 -2.3,-3.051 -4.02,-6.68 -5.16,-10.942 -1.17,-4.289 -1.71,-8.8669 -1.71,-13.7497 l 0,-46.8672 c 0,-2.3125 -1.22,-4.3008 -3.6,-5.9414 -2.3,-1.6406 -5.23,-2.5 -8.75,-2.5 -3.67,0 -6.68,0.9023 -9.06,2.6601 -2.31,1.75 -3.44,3.6719 -3.44,5.7813 l 0,93.2769 c 0,2.383 1.25,4.372 3.75,5.942 2.5,1.558 5.47,2.34 8.91,2.34 3.44,0 6.29,-0.782 8.59,-2.34 2.38,-1.57 3.6,-3.559 3.6,-5.942 l 0,-14.058 c 1.25,2.379 2.69,5 4.37,7.808 1.64,2.813 3.63,5.391 5.94,7.813 2.26,2.5 4.92,4.57 7.97,6.25 3,1.641 6.44,2.5 10.31,2.5 1.95,0 3.51,-0.391 4.69,-1.09 1.25,-0.633 2.18,-1.41 2.81,-2.351 0.7,-0.93 1.17,-1.95 1.41,-2.969 0.19,-1.051 0.31,-2.031 0.31,-2.961 0,-5.121 -0.86,-8.559 -2.5,-10.32 -1.68,-1.68 -4.14,-2.5 -7.35,-2.5 z"
         style="fill:#000000;fill-opacity:1;fill-rule:nonzero;stroke:none"
         id="path42"
         inkscape:connector-curvature="0" /><path
         d="m 1511.88,48.3984 c 0,-2.5 -1.18,-4.8476 -3.44,-7.0273 -2.19,-2.2695 -5.28,-3.4414 -9.22,-3.4414 -3.87,0 -6.95,1.0898 -9.22,3.2812 -2.19,2.0704 -3.28,4.4493 -3.28,7.1875 l 0,87.9726 c 0,4.059 1.29,6.949 3.9,8.75 2.7,1.867 5.55,2.809 8.6,2.809 3.12,0 5.98,-0.899 8.59,-2.66 2.7,-1.79 4.07,-4.758 4.07,-8.899 l 0,-87.9726 z m -26.26,123.5896 c 0,3.832 1.29,7.071 3.91,9.692 2.58,2.582 5.82,3.91 9.69,3.91 3.94,0 7.19,-1.328 9.69,-3.91 2.57,-2.621 3.9,-5.86 3.9,-9.692 0,-3.867 -1.33,-7.109 -3.9,-9.687 -2.5,-2.61 -5.75,-3.903 -9.69,-3.903 -3.87,0 -7.11,1.293 -9.69,3.903 -2.62,2.578 -3.91,5.82 -3.91,9.687 z"
         style="fill:#000000;fill-opacity:1;fill-rule:nonzero;stroke:none"
         id="path44"
         inkscape:connector-curvature="0" /><path
         d="m 1667.66,102.148 c 0,4.262 -0.28,8.012 -0.78,11.25 -0.55,3.204 -1.53,5.864 -2.97,7.973 -1.37,2.18 -3.29,3.789 -5.79,4.84 -2.5,1.019 -5.7,1.559 -9.53,1.559 -3.24,0 -6.25,-0.391 -9.06,-1.09 -2.73,-0.629 -5.08,-1.84 -7.03,-3.59 -1.99,-1.801 -3.55,-4.301 -4.69,-7.5 -1.17,-3.25 -1.72,-7.352 -1.72,-12.352 l 0,-56.8669 c 0,-2.4219 -1.21,-4.3398 -3.59,-5.7813 -2.3,-1.5703 -5.27,-2.4296 -8.91,-2.6601 -3.75,-0.0781 -6.83,0.6992 -9.21,2.3398 -2.31,1.6797 -3.44,3.6797 -3.44,6.1016 l 0,55.7769 c 0,8.512 -1.33,14.922 -3.91,19.223 -2.62,4.25 -7.77,6.399 -15.47,6.399 -3.24,0 -6.21,-0.391 -8.9,-1.09 -2.74,-0.629 -5.08,-1.84 -7.04,-3.59 -1.99,-1.801 -3.55,-4.301 -4.68,-7.5 -1.06,-3.25 -1.56,-7.352 -1.56,-12.352 l 0,-56.8669 c 0,-2.4219 -1.22,-4.3828 -3.6,-5.9414 -2.3,-1.6406 -5.47,-2.5 -9.53,-2.5 -3.98,0 -6.99,0.8594 -9.06,2.5 -2.11,1.5586 -3.13,3.5195 -3.13,5.9414 l 0,94.2189 c 0,2.379 0.98,4.211 2.97,5.461 2.07,1.25 5.35,1.879 9.85,1.879 4.57,0 7.69,-0.7 9.37,-2.032 1.76,-1.367 2.66,-3.128 2.66,-5.308 l 0,-10.629 c 2.26,5.629 5.54,10.348 9.84,14.219 4.37,3.832 9.57,5.781 15.63,5.781 8.32,0 14.92,-1.84 19.84,-5.473 4.88,-3.668 8.48,-8.867 10.78,-15.617 3.44,5.93 8.16,10.93 14.22,15 6.01,4.059 13.05,6.09 21.09,6.09 4.89,0 9.77,-0.859 14.69,-2.5 4.88,-1.563 9.22,-3.91 12.97,-7.031 3.83,-3.129 6.91,-6.989 9.22,-11.559 2.38,-4.492 3.59,-9.691 3.59,-15.633 l 0,-66.8669 c 0,-2.1094 -0.55,-3.9922 -1.56,-5.6328 -1.06,-1.6367 -3.99,-2.5781 -8.75,-2.8086 -4.81,-0.0781 -8.13,0.4687 -10,1.7187 -1.88,1.25 -2.81,3.4727 -2.81,6.7227 l 0,55.7769 z"
         style="fill:#000000;fill-opacity:1;fill-rule:nonzero;stroke:none"
         id="path46"
         inkscape:connector-curvature="0" /><path
         d="m 1779.92,92.1484 c 0.08,11.7616 -2.11,20.6606 -6.56,26.7226 -4.49,6.008 -10.31,8.981 -17.5,8.899 -7.19,-0.11 -12.66,-3.391 -16.41,-9.84 -3.75,-6.481 -5.7,-15.121 -5.78,-25.9417 -0.12,-10.4297 1.6,-18.668 5.16,-24.6875 3.51,-6.0508 9.1,-9.0625 16.72,-9.0625 7.57,0 13.51,2.6601 17.81,7.9726 4.26,5.3086 6.44,13.9493 6.56,25.9375 z m -46.09,-73.5976 c 0,-1.0117 -0.16,-2.1016 -0.47,-3.2813 -0.31,-1.25 -1.02,-2.3789 -2.03,-3.4297 -0.94,-1.1406 -2.27,-2.03902 -3.91,-2.66011 -1.68,-0.62891 -3.75,-0.94141 -6.25,-0.94141 -5.23,0.1211 -8.67,1.3711 -10.31,3.75002 -1.68,2.3125 -2.5,4.4922 -2.5,6.5625 l 0,119.0702 c 0,2.07 0.98,4.258 2.97,6.559 2.07,2.379 5.23,3.629 9.53,3.75 4.26,0 7.42,-1.211 9.53,-3.59 2.07,-2.43 3.13,-4.649 3.13,-6.719 l 0,-8.441 c 2.5,6.761 6.17,11.91 11.09,15.468 5,3.512 10.66,5.313 17.03,5.313 5.7,0 11.25,-1.012 16.56,-2.973 5.39,-1.867 10.16,-5.109 14.22,-9.687 4.06,-4.492 7.27,-10.422 9.69,-17.813 2.5,-7.297 3.75,-16.328 3.75,-27.0271 0,-8.8711 -1.09,-16.7226 -3.28,-23.5898 -2.11,-6.8828 -5.08,-12.7422 -8.91,-17.5 -3.87,-4.6914 -8.51,-8.25 -13.9,-10.6328 -5.43,-2.5 -11.37,-3.75 -17.82,-3.75 -6.56,0 -12.15,1.332 -16.72,3.9101 -4.49,2.5 -8.28,7.1133 -11.4,13.9024 l 0,-36.25 z"
         style="fill:#000000;fill-opacity:1;fill-rule:nonzero;stroke:none"
         id="path48"
         inkscape:connector-curvature="0" /><path
         d="m 1873.98,127.77 c -4.6,0 -8.67,-0.891 -12.18,-2.649 -3.56,-1.68 -6.53,-4.07 -8.91,-7.191 -2.3,-3.051 -4.02,-6.68 -5.16,-10.942 -1.17,-4.289 -1.71,-8.8669 -1.71,-13.7497 l 0,-46.8672 c 0,-2.3125 -1.22,-4.3008 -3.6,-5.9414 -2.3,-1.6406 -5.23,-2.5 -8.75,-2.5 -3.67,0 -6.68,0.9023 -9.06,2.6601 -2.31,1.75 -3.44,3.6719 -3.44,5.7813 l 0,93.2769 c 0,2.383 1.25,4.372 3.75,5.942 2.5,1.558 5.47,2.34 8.91,2.34 3.44,0 6.29,-0.782 8.59,-2.34 2.38,-1.57 3.6,-3.559 3.6,-5.942 l 0,-14.058 c 1.25,2.379 2.69,5 4.37,7.808 1.64,2.813 3.63,5.391 5.94,7.813 2.26,2.5 4.92,4.57 7.97,6.25 3,1.641 6.44,2.5 10.31,2.5 1.95,0 3.51,-0.391 4.69,-1.09 1.25,-0.633 2.18,-1.41 2.81,-2.351 0.7,-0.93 1.17,-1.95 1.41,-2.969 0.19,-1.051 0.31,-2.031 0.31,-2.961 0,-5.121 -0.86,-8.559 -2.5,-10.32 -1.68,-1.68 -4.14,-2.5 -7.35,-2.5 z"
         style="fill:#000000;fill-opacity:1;fill-rule:nonzero;stroke:none"
         id="path50"
         inkscape:connector-curvature="0" /><path
         d="m 1942.81,149.961 c 9.14,0 17.03,-1.481 23.6,-4.371 6.56,-2.93 11.87,-7 15.93,-12.192 4.07,-5.238 7.04,-11.367 8.91,-18.437 1.95,-7.109 2.97,-14.691 2.97,-22.8126 0,-8.2382 -1.02,-15.7773 -2.97,-22.6601 -1.87,-6.8672 -4.96,-12.8086 -9.22,-17.8086 -4.18,-4.918 -9.49,-8.7109 -15.94,-11.4102 -6.48,-2.8086 -14.21,-4.2187 -23.28,-4.2187 -9.06,0 -16.83,1.4883 -23.28,4.3789 -6.37,2.8086 -11.64,6.7187 -15.78,11.7187 -4.06,5 -7.03,10.9414 -8.91,17.8125 -1.87,6.9493 -2.81,14.5274 -2.81,22.6602 0,8.1169 0.94,15.6599 2.81,22.6489 1.88,6.96 4.77,13.011 8.75,18.128 3.95,5.192 9.14,9.262 15.63,12.192 6.56,2.89 14.41,4.371 23.59,4.371 z m 0,-91.7227 c 8.95,0 15.51,2.9726 19.69,8.9101 4.14,5.9414 6.25,14.2618 6.25,25 0,10.8206 -2.03,19.4536 -6.09,25.9416 -3.99,6.441 -10.75,9.68 -20.32,9.68 -4.8,0 -8.82,-0.93 -12.03,-2.809 -3.12,-1.871 -5.7,-4.449 -7.65,-7.66 -1.88,-3.121 -3.25,-6.832 -4.07,-11.09 -0.86,-4.301 -1.25,-8.8321 -1.25,-13.5899 0,-10.8594 1.96,-19.3008 5.94,-25.3203 4.06,-6.0508 10.55,-9.0625 19.53,-9.0625 z"
         style="fill:#000000;fill-opacity:1;fill-rule:nonzero;stroke:none"
         id="path52"
         inkscape:connector-curvature="0" /><path
         d="m 2057.97,47.1484 c -1.8,-3.5586 -3.59,-5.9375 -5.47,-7.1875 -1.8,-1.332 -3.59,-2.0312 -5.47,-2.0312 -1.8,0 -3.59,0.4687 -5.47,1.4101 -1.79,0.9297 -3.67,3.5118 -5.62,7.8086 l -33.6,84.0626 c -0.93,2.269 -1.32,4.41 -1.09,6.41 0.2,2.07 0.78,3.899 1.72,5.469 1.01,1.558 2.38,2.73 4.06,3.59 1.76,0.82 3.79,1.25 6.09,1.25 2.27,0 4.54,-0.629 6.72,-1.879 2.27,-1.172 4.07,-3.281 5.32,-6.403 l 22.34,-61.0972 c 3.75,10.3984 7.5,20.5508 11.25,30.4692 3.75,10 7.42,20.199 11.09,30.628 0.94,2.383 2.27,4.372 4.07,5.942 1.75,1.558 3.75,2.34 5.93,2.34 1.76,0 3.52,-0.391 5.32,-1.09 1.87,-0.75 3.43,-1.801 4.68,-3.129 1.33,-1.25 2.23,-2.93 2.66,-5 0.39,-1.992 0.08,-4.223 -0.94,-6.723 l -33.59,-84.8396 z"
         style="fill:#000000;fill-opacity:1;fill-rule:nonzero;stroke:none"
         id="path54"
         inkscape:connector-curvature="0" /><path
         d="m 2166.95,102.148 c 0,3.321 -0.27,6.563 -0.78,9.692 -0.55,3.121 -1.52,5.82 -2.97,8.121 -1.36,2.379 -3.24,4.258 -5.62,5.629 -2.31,1.441 -5.31,2.18 -9.06,2.18 -4.81,0 -8.68,-0.86 -11.57,-2.5 -2.93,-1.68 -5.23,-3.821 -6.87,-6.399 -1.56,-2.621 -2.62,-5.43 -3.13,-8.441 -0.54,-2.93 -0.78,-5.7 -0.78,-8.282 l 40.78,0 z m -17.81,-66.0972 c -8.12,0 -15.23,1.3711 -21.25,4.0703 -5.94,2.5781 -10.94,6.2891 -15,11.0898 -3.98,4.8789 -6.95,10.7774 -8.91,17.6602 -1.99,6.9492 -2.96,14.7187 -2.96,23.2773 0,8.3206 0.97,15.9726 2.96,22.9726 1.96,7.07 5,13.16 9.07,18.277 4.06,5.192 9.06,9.262 15,12.192 6.01,2.89 13.04,4.371 21.09,4.371 7.58,0 14.06,-1.371 19.38,-4.063 5.39,-2.617 9.76,-6.207 13.12,-10.777 3.44,-4.5 5.94,-9.769 7.5,-15.781 1.64,-5.942 2.5,-12.27 2.5,-18.91 0,-5.6292 -0.78,-9.9183 -2.34,-12.8089 -1.49,-2.9297 -4.18,-4.3828 -8.13,-4.3828 l -55,0 c 0,-3.1172 0.31,-6.168 0.94,-9.0586 0.7,-2.9297 1.95,-5.5899 3.75,-7.9688 1.76,-2.4218 4.14,-4.332 7.19,-5.7812 3,-1.4805 6.87,-2.1914 11.56,-2.1914 5.94,0 10.62,0.8633 14.06,2.6601 3.44,1.7618 6.13,3.793 8.13,6.0899 1.44,1.7617 2.89,2.8125 4.37,3.1328 1.45,0.3906 2.81,0.4687 4.06,0.1484 1.25,-0.3086 2.39,-0.8593 3.44,-1.5586 1.02,-0.6211 1.88,-1.1718 2.5,-1.5625 2.5,-1.9882 3.48,-4.7695 2.97,-8.2773 -0.55,-3.5625 -2.46,-7.0313 -5.78,-10.4727 -3.24,-3.3593 -7.77,-6.207 -13.59,-8.5976 -5.75,-2.5 -12.62,-3.75 -20.63,-3.75 z"
         style="fill:#000000;fill-opacity:1;fill-rule:nonzero;stroke:none"
         id="path56"
         inkscape:connector-curvature="0" /><path
         d="m 2226.8,92.4609 c 0.08,-12.1093 2.26,-20.8593 6.56,-26.25 4.37,-5.3125 10.35,-7.9726 17.97,-7.9726 7.58,0 13.16,3.0117 16.72,9.0625 3.51,6.1406 5.31,14.418 5.31,24.8476 0,10.8206 -1.95,19.4106 -5.78,25.7816 -3.87,6.332 -9.38,9.609 -16.56,9.84 -7.43,0.082 -13.36,-2.77 -17.82,-8.59 -4.37,-5.86 -6.52,-14.77 -6.4,-26.7191 z m 46.25,-37.6601 c -0.94,-2.3008 -2.35,-4.5313 -4.22,-6.711 -1.88,-2.1093 -4.14,-3.9882 -6.72,-5.6289 -2.5,-1.6406 -5.39,-2.9726 -8.59,-3.9101 -3.13,-1.0117 -6.53,-1.5625 -10.16,-1.5625 -6.17,0 -11.8,1.25 -16.88,3.75 -5.11,2.3828 -9.6,5.9414 -13.43,10.6328 -3.75,4.7578 -6.72,10.6172 -8.91,17.5 -2.11,6.8672 -3.12,14.7187 -3.12,23.5898 0,10.6991 1.28,19.7301 3.9,27.0271 2.7,7.391 6.13,13.321 10.31,17.813 4.26,4.578 8.99,7.82 14.22,9.687 5.32,1.961 10.55,2.973 15.78,2.973 5.71,0 11.25,-1.949 16.57,-5.781 5.31,-3.75 9.14,-8.75 11.56,-15 l 0,50.468 c 0,2.071 1.02,4.301 3.12,6.723 2.07,2.379 5.24,3.59 9.54,3.59 4.25,-0.121 7.38,-1.371 9.37,-3.75 2.07,-2.301 3.13,-4.492 3.13,-6.563 l 0,-131.2496 c 0,-1.0586 -0.16,-2.1875 -0.47,-3.4375 -0.32,-1.1718 -1.02,-2.2617 -2.03,-3.2812 -0.94,-1.1289 -2.27,-2.0313 -3.91,-2.6602 -1.68,-0.6992 -3.83,-1.0898 -6.41,-1.0898 -2.61,0 -4.76,0.3906 -6.4,1.0898 -1.57,0.6289 -2.89,1.5313 -3.91,2.6602 -0.94,1.0195 -1.56,2.1094 -1.87,3.2812 -0.32,1.25 -0.47,2.3789 -0.47,3.4375 l 0,6.4024 z"
         style="fill:#000000;fill-opacity:1;fill-rule:nonzero;stroke:none"
         id="path58"
         inkscape:connector-curvature="0" /><path
         d="m 2387.73,92.4609 c 0.08,-12.1093 2.27,-20.8593 6.57,-26.25 4.37,-5.3125 10.35,-7.9726 17.97,-7.9726 7.57,0 13.16,3.0117 16.71,9.0625 3.52,6.1406 5.32,14.418 5.32,24.8476 0,10.8206 -1.96,19.4106 -5.78,25.7816 -3.87,6.332 -9.38,9.609 -16.57,9.84 -7.42,0.082 -13.36,-2.77 -17.81,-8.59 -4.37,-5.86 -6.52,-14.77 -6.41,-26.7191 z m 46.25,-37.6601 c -0.93,-2.3008 -2.34,-4.5313 -4.21,-6.711 -1.88,-2.1093 -4.15,-3.9882 -6.72,-5.6289 -2.5,-1.6406 -5.39,-2.9726 -8.6,-3.9101 -3.12,-1.0117 -6.52,-1.5625 -10.15,-1.5625 -6.18,0 -11.8,1.25 -16.88,3.75 -5.12,2.3828 -9.61,5.9414 -13.44,10.6328 -3.75,4.7578 -6.71,10.6172 -8.9,17.5 -2.11,6.8672 -3.13,14.7187 -3.13,23.5898 0,10.6991 1.29,19.7301 3.91,27.0271 2.69,7.391 6.13,13.321 10.31,17.813 4.26,4.578 8.99,7.82 14.22,9.687 5.31,1.961 10.55,2.973 15.78,2.973 5.71,0 11.25,-1.949 16.56,-5.781 5.32,-3.75 9.15,-8.75 11.57,-15 l 0,50.468 c 0,2.071 1.01,4.301 3.12,6.723 2.07,2.379 5.24,3.59 9.53,3.59 4.26,-0.121 7.39,-1.371 9.38,-3.75 2.07,-2.301 3.12,-4.492 3.12,-6.563 l 0,-131.2496 c 0,-1.0586 -0.15,-2.1875 -0.47,-3.4375 -0.31,-1.1718 -1.01,-2.2617 -2.03,-3.2812 -0.93,-1.1289 -2.26,-2.0313 -3.9,-2.6602 -1.68,-0.6992 -3.83,-1.0898 -6.41,-1.0898 -2.62,0 -4.76,0.3906 -6.41,1.0898 -1.56,0.6289 -2.89,1.5313 -3.9,2.6602 -0.94,1.0195 -1.56,2.1094 -1.88,3.2812 -0.31,1.25 -0.47,2.3789 -0.47,3.4375 l 0,6.4024 z"
         style="fill:#000000;fill-opacity:1;fill-rule:nonzero;stroke:none"
         id="path60"
         inkscape:connector-curvature="0" /><path
         d="m 2543.98,60.4297 c -1.05,-2.3086 -2.46,-4.5313 -4.21,-6.7188 -1.68,-2.1914 -3.72,-4.1796 -6.1,-5.9414 -2.3,-1.789 -5,-3.1992 -8.12,-4.2187 -3.05,-0.9297 -6.41,-1.4024 -10.16,-1.4024 -5.23,0 -10.12,0.7813 -14.69,2.3399 -4.49,1.6406 -8.43,4.0625 -11.87,7.1914 -3.36,3.1211 -6.02,7.0703 -7.97,11.8711 -1.99,4.7695 -2.97,10.3984 -2.97,16.8789 l 0,59.2183 c 0,2.383 1.09,4.372 3.28,5.942 2.19,1.558 5.16,2.34 8.91,2.34 3.75,0 6.76,-0.782 9.06,-2.34 2.27,-1.57 3.44,-3.559 3.44,-5.942 l 0,-49.5269 c 0,-4.1797 0.23,-7.8906 0.78,-11.1016 0.62,-3.2382 1.6,-5.9297 2.97,-8.1211 1.44,-2.1093 3.44,-3.6679 5.94,-4.6875 2.5,-1.0507 5.66,-1.5625 9.53,-1.5625 3.2,0 6.17,0.3125 8.9,0.9414 2.82,0.6211 5.16,1.7891 7.03,3.5899 1.96,1.8711 3.48,4.3711 4.54,7.5 1.13,3.1992 1.71,7.3789 1.71,12.5 l 0,50.4683 c 0,2.192 1.14,4.102 3.44,5.782 2.38,1.64 5.39,2.5 9.06,2.5 3.52,0 6.45,-0.899 8.75,-2.66 2.39,-1.68 3.6,-3.551 3.6,-5.622 l 0,-94.8472 c 0,-6.1289 -1.33,-11.711 -3.91,-16.711 -2.5,-5 -6.05,-9.2578 -10.62,-12.8203 -4.5,-3.6289 -9.77,-6.39841 -15.78,-8.28122 -6.06,-1.86719 -12.58,-2.72656 -19.54,-2.64844 -3.86,0 -7.34,0.23047 -10.46,0.6211 -3.13,0.30859 -6.18,0.9375 -9.07,1.8789 -2.81,0.92969 -5.58,2.17969 -8.28,3.74996 -2.73,1.4805 -5.58,3.3594 -8.59,5.6211 -3.13,2.5 -5,5.0782 -5.63,7.6602 -0.62,2.6094 -0.54,5.1484 0.32,7.6484 1.13,3.75 2.85,6.0196 5.15,6.7188 2.38,0.7422 4.73,0.1211 7.03,-1.8672 3.21,-2.8203 7.19,-5.0391 11.88,-6.7227 4.76,-1.6367 10.62,-2.3789 17.5,-2.1875 4.14,0.1211 7.81,0.6993 10.94,1.7188 3.12,1.0508 5.7,2.4219 7.81,4.0586 2.19,1.5625 3.79,3.3633 4.84,5.3125 1.02,2 1.56,3.9883 1.56,6.0976 l 0,15.7813 z"
         style="fill:#000000;fill-opacity:1;fill-rule:nonzero;stroke:none"
         id="path62"
         inkscape:connector-curvature="0" /><path
         d="m 2654.61,101.988 c 0,4.262 -0.27,8.012 -0.78,11.25 -0.55,3.321 -1.53,6.024 -2.97,8.133 -1.37,2.18 -3.36,3.789 -5.94,4.84 -2.5,1.019 -5.7,1.559 -9.53,1.559 -3.24,0 -6.21,-0.391 -8.91,-1.09 -2.73,-0.629 -5.07,-1.84 -7.03,-3.59 -1.87,-1.801 -3.4,-4.34 -4.53,-7.66 -1.17,-3.239 -1.72,-7.418 -1.72,-12.5 l 0,-56.5589 c 0,-2.3125 -1.21,-4.3008 -3.59,-5.9414 -2.31,-1.6406 -5.23,-2.5 -8.75,-2.5 -3.67,0 -6.68,0.9023 -9.06,2.6601 -2.31,1.75 -3.44,3.6719 -3.44,5.7813 l 0,93.2769 c 0,2.383 1.25,4.372 3.75,5.942 2.5,1.558 5.47,2.34 8.91,2.34 3.43,0 6.28,-0.782 8.59,-2.34 2.38,-1.57 3.59,-3.559 3.59,-5.942 l 0,-9.847 c 1.25,2.39 2.7,4.769 4.38,7.187 1.64,2.391 3.63,4.532 5.94,6.41 2.26,1.954 4.92,3.512 7.96,4.692 3.01,1.25 6.45,1.871 10.32,1.871 5.7,0 10.86,-0.859 15.47,-2.5 4.68,-1.563 8.63,-3.91 11.87,-7.031 3.2,-3.129 5.7,-7.11 7.5,-11.879 1.88,-4.801 2.81,-10.391 2.81,-16.711 l 0,-65.4689 c 0,-2.4219 -1.09,-4.3828 -3.28,-5.9414 -2.19,-1.6406 -5.15,-2.5 -8.9,-2.5 -3.75,0 -6.84,0.8594 -9.22,2.5 -2.31,1.5586 -3.44,3.5195 -3.44,5.9414 l 0,55.6169 z"
         style="fill:#000000;fill-opacity:1;fill-rule:nonzero;stroke:none"
         id="path64"
         inkscape:connector-curvature="0" /><path
         d="m 2718.44,92.4609 c 0.08,-12.1914 2.26,-20.9414 6.56,-26.25 4.38,-5.3125 10.39,-7.9726 18.12,-7.9726 7.82,0 13.48,3.0117 17.04,9.0625 3.63,6.0195 5.35,14.3008 5.15,24.8476 -0.11,10.8206 -1.99,19.4106 -5.62,25.7816 -3.67,6.332 -9.3,9.609 -16.88,9.84 -7.61,0.082 -13.67,-2.77 -18.12,-8.59 -4.38,-5.739 -6.49,-14.649 -6.25,-26.7191 z m 46.4,-37.6601 c -3.12,-6.7891 -6.99,-11.4024 -11.56,-13.9024 -4.49,-2.5781 -10,-3.9101 -16.56,-3.9101 -6.49,0 -12.42,1.25 -17.81,3.75 -5.43,2.3828 -10.08,5.9414 -13.91,10.6328 -3.87,4.7578 -6.88,10.6172 -9.06,17.5 -2.11,6.8672 -3.13,14.7187 -3.13,23.5898 0,10.6991 1.17,19.7301 3.6,27.0271 2.5,7.391 5.78,13.321 9.84,17.813 4.06,4.578 8.75,7.82 14.06,9.687 5.39,1.961 10.98,2.973 16.72,2.973 6.33,0 11.95,-1.801 16.88,-5.313 5,-3.558 8.75,-8.707 11.25,-15.468 l 0,8.441 c 0,2.07 1.01,4.289 3.12,6.719 2.07,2.379 5.24,3.59 9.53,3.59 4.26,-0.121 7.39,-1.371 9.38,-3.75 2.07,-2.301 3.12,-4.489 3.12,-6.559 l 0,-89.0702 c 0,-2.1016 -0.86,-4.2891 -2.5,-6.5625 -1.68,-2.3789 -5.11,-3.6289 -10.31,-3.75 -2.62,0 -4.77,0.3125 -6.41,0.9414 -1.56,0.6211 -2.89,1.5195 -3.9,2.6601 -0.94,1.0118 -1.57,2.1094 -1.88,3.2813 -0.31,1.25 -0.47,2.3789 -0.47,3.4297 l 0,6.25 z"
         style="fill:#000000;fill-opacity:1;fill-rule:nonzero;stroke:none"
         id="path66"
         inkscape:connector-curvature="0" /><path
         d="m 2940.31,102.148 c 0,4.262 -0.27,8.012 -0.78,11.25 -0.55,3.204 -1.52,5.864 -2.97,7.973 -1.36,2.18 -3.28,3.789 -5.78,4.84 -2.5,1.019 -5.7,1.559 -9.53,1.559 -3.24,0 -6.25,-0.391 -9.06,-1.09 -2.74,-0.629 -5.08,-1.84 -7.03,-3.59 -2,-1.801 -3.56,-4.301 -4.69,-7.5 -1.17,-3.25 -1.72,-7.352 -1.72,-12.352 l 0,-56.8669 c 0,-2.4219 -1.21,-4.3398 -3.59,-5.7813 -2.31,-1.5703 -5.28,-2.4296 -8.91,-2.6601 -3.75,-0.0781 -6.84,0.6992 -9.22,2.3398 -2.3,1.6797 -3.44,3.6797 -3.44,6.1016 l 0,55.7769 c 0,8.512 -1.32,14.922 -3.9,19.223 -2.62,4.25 -7.78,6.399 -15.47,6.399 -3.24,0 -6.21,-0.391 -8.91,-1.09 -2.73,-0.629 -5.08,-1.84 -7.03,-3.59 -1.99,-1.801 -3.55,-4.301 -4.69,-7.5 -1.05,-3.25 -1.56,-7.352 -1.56,-12.352 l 0,-56.8669 c 0,-2.4219 -1.21,-4.3828 -3.59,-5.9414 -2.31,-1.6406 -5.47,-2.5 -9.53,-2.5 -3.99,0 -7,0.8594 -9.07,2.5 -2.11,1.5586 -3.12,3.5195 -3.12,5.9414 l 0,94.2189 c 0,2.379 0.98,4.211 2.97,5.461 2.07,1.25 5.35,1.879 9.84,1.879 4.57,0 7.7,-0.7 9.38,-2.032 1.75,-1.367 2.65,-3.128 2.65,-5.308 l 0,-10.629 c 2.27,5.629 5.55,10.348 9.85,14.219 4.37,3.832 9.57,5.781 15.62,5.781 8.32,0 14.92,-1.84 19.85,-5.473 4.88,-3.668 8.47,-8.867 10.78,-15.617 3.43,5.93 8.16,10.93 14.22,15 6.01,4.059 13.04,6.09 21.09,6.09 4.88,0 9.76,-0.859 14.69,-2.5 4.88,-1.563 9.22,-3.91 12.96,-7.031 3.83,-3.129 6.92,-6.989 9.22,-11.559 2.39,-4.492 3.6,-9.691 3.6,-15.633 l 0,-66.8669 c 0,-2.1094 -0.55,-3.9922 -1.56,-5.6328 -1.06,-1.6367 -3.99,-2.5781 -8.76,-2.8086 -4.8,-0.0781 -8.12,0.4687 -10,1.7187 -1.87,1.25 -2.81,3.4727 -2.81,6.7227 l 0,55.7769 z"
         style="fill:#000000;fill-opacity:1;fill-rule:nonzero;stroke:none"
         id="path68"
         inkscape:connector-curvature="0" /><path
         d="m 3009.14,48.3984 c 0,-2.5 -1.17,-4.8476 -3.44,-7.0273 -2.18,-2.2695 -5.27,-3.4414 -9.22,-3.4414 -3.86,0 -6.95,1.0898 -9.21,3.2812 -2.19,2.0704 -3.29,4.4493 -3.29,7.1875 l 0,87.9726 c 0,4.059 1.29,6.949 3.91,8.75 2.7,1.867 5.55,2.809 8.59,2.809 3.13,0 5.98,-0.899 8.6,-2.66 2.69,-1.79 4.06,-4.758 4.06,-8.899 l 0,-87.9726 z m -26.25,123.5896 c 0,3.832 1.29,7.071 3.91,9.692 2.58,2.582 5.82,3.91 9.68,3.91 3.95,0 7.19,-1.328 9.69,-3.91 2.58,-2.621 3.91,-5.86 3.91,-9.692 0,-3.867 -1.33,-7.109 -3.91,-9.687 -2.5,-2.61 -5.74,-3.903 -9.69,-3.903 -3.86,0 -7.1,1.293 -9.68,3.903 -2.62,2.578 -3.91,5.82 -3.91,9.687 z"
         style="fill:#000000;fill-opacity:1;fill-rule:nonzero;stroke:none"
         id="path70"
         inkscape:connector-curvature="0" /><path
         d="m 3025.23,92.4609 c 0,7.5781 1.1,14.8401 3.29,21.7191 2.18,6.949 5.39,13.05 9.68,18.281 4.38,5.309 9.77,9.527 16.25,12.66 6.45,3.199 13.95,4.84 22.5,4.84 6.88,0 13.13,-1.211 18.75,-3.59 5.63,-2.422 9.89,-5.082 12.82,-7.973 1.13,-1.058 2.18,-2.418 3.12,-4.058 1.02,-1.57 1.76,-3.289 2.19,-5.16 0.51,-1.879 0.66,-3.75 0.47,-5.629 -0.24,-1.871 -1.02,-3.59 -2.35,-5.153 -0.54,-0.628 -1.33,-1.367 -2.34,-2.187 -1.06,-0.859 -2.34,-1.41 -3.91,-1.723 -1.48,-0.308 -2.97,-0.308 -4.53,0 -1.56,0.313 -3.2,1.41 -4.84,3.282 -2.62,3.21 -5.39,5.671 -8.28,7.351 -2.82,1.758 -6.37,2.649 -10.63,2.649 -4.06,0 -7.77,-0.891 -11.09,-2.649 -3.36,-1.68 -6.17,-4.07 -8.44,-7.191 -2.3,-3.051 -4.14,-6.801 -5.47,-11.25 -1.37,-4.379 -2.03,-9.2191 -2.03,-14.5316 0,-5.5468 0.7,-10.4296 2.19,-14.6875 1.56,-4.1796 3.59,-7.7304 6.09,-10.6211 2.58,-2.8203 5.51,-4.9609 8.75,-6.4101 3.2,-1.4805 6.49,-2.1914 9.85,-2.1914 2.5,0 4.57,0.082 6.25,0.3125 1.64,0.3203 3,0.7109 4.06,1.25 1.01,0.5078 1.95,1.0976 2.81,1.7187 0.82,0.6289 1.6,1.25 2.34,1.8789 1.25,0.9414 2.5,1.8711 3.75,2.8125 1.33,1.0196 2.74,1.7579 4.22,2.1875 1.57,0.5118 3.17,0.6211 4.85,0.3125 1.75,-0.2304 3.63,-1.0117 5.62,-2.3398 2.89,-1.9922 4.61,-4.0703 5.16,-6.25 0.62,-2.1914 -0.12,-5.082 -2.19,-8.6016 -2.62,-4.6093 -7.11,-8.2812 -13.44,-11.0898 -6.25,-2.8906 -13.98,-4.3789 -23.12,-4.3789 -8.44,0 -15.94,1.3711 -22.5,4.0703 -6.49,2.5781 -11.96,6.3281 -16.41,11.25 -4.49,5 -7.89,10.9297 -10.15,17.8086 -2.19,6.9492 -3.29,14.7305 -3.29,23.2812 z"
         style="fill:#000000;fill-opacity:1;fill-rule:nonzero;stroke:none"
         id="path72"
         inkscape:connector-curvature="0" /><path
         d="m 3199.06,92.4609 c 0.08,-12.1093 2.27,-20.8593 6.56,-26.25 4.38,-5.3125 10.36,-7.9726 17.97,-7.9726 7.58,0 13.17,3.0117 16.72,9.0625 3.52,6.1406 5.31,14.418 5.31,24.8476 0,10.8206 -1.95,19.4106 -5.78,25.7816 -3.86,6.332 -9.37,9.609 -16.56,9.84 -7.42,0.082 -13.36,-2.77 -17.81,-8.59 -4.38,-5.86 -6.52,-14.77 -6.41,-26.7191 z m 46.25,-37.6601 c -0.93,-2.3008 -2.34,-4.5313 -4.22,-6.711 -1.87,-2.1093 -4.14,-3.9882 -6.71,-5.6289 -2.5,-1.6406 -5.4,-2.9726 -8.6,-3.9101 -3.12,-1.0117 -6.52,-1.5625 -10.16,-1.5625 -6.17,0 -11.79,1.25 -16.87,3.75 -5.12,2.3828 -9.61,5.9414 -13.44,10.6328 -3.75,4.7578 -6.72,10.6172 -8.9,17.5 -2.11,6.8672 -3.13,14.7187 -3.13,23.5898 0,10.6991 1.29,19.7301 3.91,27.0271 2.69,7.391 6.13,13.321 10.31,17.813 4.26,4.578 8.98,7.82 14.22,9.687 5.31,1.961 10.55,2.973 15.78,2.973 5.7,0 11.25,-1.949 16.56,-5.781 5.32,-3.75 9.14,-8.75 11.56,-15 l 0,50.468 c 0,2.071 1.02,4.301 3.13,6.723 2.07,2.379 5.23,3.59 9.53,3.59 4.26,-0.121 7.38,-1.371 9.38,-3.75 2.07,-2.301 3.12,-4.492 3.12,-6.563 l 0,-131.2496 c 0,-1.0586 -0.16,-2.1875 -0.47,-3.4375 -0.31,-1.1718 -1.01,-2.2617 -2.03,-3.2812 -0.94,-1.1289 -2.26,-2.0313 -3.9,-2.6602 -1.68,-0.6992 -3.83,-1.0898 -6.41,-1.0898 -2.62,0 -4.77,0.3906 -6.41,1.0898 -1.56,0.6289 -2.89,1.5313 -3.9,2.6602 -0.94,1.0195 -1.57,2.1094 -1.88,3.2812 -0.31,1.25 -0.47,2.3789 -0.47,3.4375 l 0,6.4024 z"
         style="fill:#000000;fill-opacity:1;fill-rule:nonzero;stroke:none"
         id="path74"
         inkscape:connector-curvature="0" /><path
         d="m 3350.16,102.148 c 0,3.321 -0.28,6.563 -0.78,9.692 -0.55,3.121 -1.53,5.82 -2.97,8.121 -1.37,2.379 -3.25,4.258 -5.63,5.629 -2.3,1.441 -5.31,2.18 -9.06,2.18 -4.81,0 -8.67,-0.86 -11.56,-2.5 -2.93,-1.68 -5.24,-3.821 -6.88,-6.399 -1.56,-2.621 -2.62,-5.43 -3.12,-8.441 -0.55,-2.93 -0.78,-5.7 -0.78,-8.282 l 40.78,0 z m -17.82,-66.0972 c -8.12,0 -15.23,1.3711 -21.25,4.0703 -5.93,2.5781 -10.93,6.2891 -15,11.0898 -3.98,4.8789 -6.95,10.7774 -8.9,17.6602 -1.99,6.9492 -2.97,14.7187 -2.97,23.2773 0,8.3206 0.98,15.9726 2.97,22.9726 1.95,7.07 5,13.16 9.06,18.277 4.06,5.192 9.06,9.262 15,12.192 6.02,2.89 13.05,4.371 21.09,4.371 7.58,0 14.07,-1.371 19.38,-4.063 5.39,-2.617 9.76,-6.207 13.12,-10.777 3.44,-4.5 5.94,-9.769 7.5,-15.781 1.64,-5.942 2.5,-12.27 2.5,-18.91 0,-5.6292 -0.78,-9.9183 -2.34,-12.8089 -1.48,-2.9297 -4.18,-4.3828 -8.12,-4.3828 l -55,0 c 0,-3.1172 0.31,-6.168 0.93,-9.0586 0.71,-2.9297 1.96,-5.5899 3.75,-7.9688 1.76,-2.4218 4.14,-4.332 7.19,-5.7812 3.01,-1.4805 6.87,-2.1914 11.56,-2.1914 5.94,0 10.63,0.8633 14.07,2.6601 3.43,1.7618 6.13,3.793 8.12,6.0899 1.45,1.7617 2.89,2.8125 4.38,3.1328 1.44,0.3906 2.81,0.4687 4.06,0.1484 1.25,-0.3086 2.38,-0.8593 3.44,-1.5586 1.01,-0.6211 1.87,-1.1718 2.5,-1.5625 2.5,-1.9882 3.47,-4.7695 2.96,-8.2773 -0.54,-3.5625 -2.46,-7.0313 -5.78,-10.4727 -3.24,-3.3593 -7.77,-6.207 -13.59,-8.5976 -5.74,-2.5 -12.62,-3.75 -20.63,-3.75 z"
         style="fill:#000000;fill-opacity:1;fill-rule:nonzero;stroke:none"
         id="path76"
         inkscape:connector-curvature="0" /><path
         d="m 3426.56,59.1797 c 4.38,0 8.05,0.9805 11.1,2.9687 3,1.9532 4.53,4.7618 4.53,8.4414 0,1.5586 -0.31,2.961 -0.94,4.211 -0.63,1.3281 -1.8,2.539 -3.44,3.5976 -1.68,1.1329 -3.98,2.2618 -6.87,3.4414 -2.82,1.129 -6.49,2.379 -10.94,3.75 -5.62,1.5586 -10.47,3.1993 -14.53,5 -3.99,1.75 -7.27,3.8204 -9.85,6.25 -2.61,2.379 -4.53,5.2302 -5.78,8.5902 -1.25,3.32 -1.87,7.34 -1.87,12.031 0,4.879 0.98,9.258 2.97,13.129 1.95,3.941 4.72,7.262 8.28,10 3.51,2.808 7.66,4.879 12.34,6.25 4.69,1.441 9.61,2.18 14.85,2.18 5.39,0 10.39,-0.622 15,-1.872 4.68,-1.168 8.63,-2.66 11.87,-4.527 3.2,-1.883 5.78,-3.91 7.66,-6.101 1.87,-2.11 2.81,-4.02 2.81,-5.782 0,-3.976 -0.7,-7.648 -2.03,-11.09 -1.25,-3.359 -3.4,-5 -6.41,-5 -0.93,0 -1.87,0.352 -2.81,1.09 -0.86,0.711 -2.15,1.801 -3.91,3.282 -3.12,2.39 -6.21,4.3 -9.21,5.781 -3.05,1.449 -7.31,2.23 -12.82,2.347 -3.44,0.192 -6.64,-0.468 -9.53,-2.027 -2.81,-1.492 -4.22,-3.91 -4.22,-7.351 0,-1.559 0.31,-2.93 0.94,-4.059 0.7,-1.051 1.91,-1.992 3.59,-2.813 1.76,-0.859 3.99,-1.718 6.72,-2.66 2.7,-0.937 6.17,-2.027 10.47,-3.277 4.57,-1.371 8.83,-2.93 12.81,-4.691 4.07,-1.6802 7.54,-3.8208 10.47,-6.3989 2.89,-2.5 5.2,-5.5898 6.88,-9.2227 1.64,-3.6679 2.5,-8.0898 2.5,-13.2773 0,-5.3203 -1.21,-10.1211 -3.6,-14.3828 -2.42,-4.2891 -5.58,-7.8867 -9.53,-10.7774 -3.98,-2.9296 -8.4,-5.1601 -13.28,-6.7226 -4.92,-1.6367 -9.92,-2.5 -15,-2.5 -6.05,0 -11.56,0.8633 -16.56,2.5 -5,1.5625 -9.22,3.4414 -12.66,5.6328 -3.44,2.1797 -6.17,4.4102 -8.12,6.7187 -1.88,2.379 -2.82,4.3711 -2.82,5.9297 0,1.5703 0.08,3.211 0.32,5 0.31,1.8789 0.78,3.5196 1.4,5 0.71,1.5703 1.57,2.8516 2.5,3.9102 1.02,1.1289 2.35,1.7187 3.91,1.7187 1.33,0 2.73,-0.7382 4.22,-2.1875 1.44,-1.4804 3.32,-3.1211 5.62,-5 2.39,-1.8007 5.39,-3.4023 9.07,-4.8398 3.63,-1.4922 8.28,-2.1914 13.9,-2.1914 z"
         style="fill:#000000;fill-opacity:1;fill-rule:nonzero;stroke:none"
         id="path78"
         inkscape:connector-curvature="0" /><path
         d="m 3507.19,48.3984 c 0,-2.5 -1.17,-4.8476 -3.44,-7.0273 -2.19,-2.2695 -5.27,-3.4414 -9.22,-3.4414 -3.87,0 -6.95,1.0898 -9.22,3.2812 -2.19,2.0704 -3.28,4.4493 -3.28,7.1875 l 0,87.9726 c 0,4.059 1.29,6.949 3.91,8.75 2.69,1.867 5.54,2.809 8.59,2.809 3.13,0 5.98,-0.899 8.59,-2.66 2.7,-1.79 4.07,-4.758 4.07,-8.899 l 0,-87.9726 z m -26.25,123.5896 c 0,3.832 1.29,7.071 3.9,9.692 2.58,2.582 5.82,3.91 9.69,3.91 3.95,0 7.19,-1.328 9.69,-3.91 2.58,-2.621 3.9,-5.86 3.9,-9.692 0,-3.867 -1.32,-7.109 -3.9,-9.687 -2.5,-2.61 -5.74,-3.903 -9.69,-3.903 -3.87,0 -7.11,1.293 -9.69,3.903 -2.61,2.578 -3.9,5.82 -3.9,9.687 z"
         style="fill:#000000;fill-opacity:1;fill-rule:nonzero;stroke:none"
         id="path80"
         inkscape:connector-curvature="0" /><path
         d="m 3620.78,45.1211 c 0,-6.0195 -1.33,-11.6016 -3.9,-16.7227 -2.62,-5.0781 -6.18,-9.4179 -10.63,-12.9687 -4.37,-3.5195 -9.69,-6.16798 -15.94,-7.96876 -6.17,-1.8711 -12.81,-2.73047 -20,-2.66016 -5,0 -9.29,0.32031 -12.81,0.9375 -3.55,0.55078 -6.68,1.3711 -9.38,2.5 -2.73,1.17188 -5.11,2.46092 -7.18,3.91012 -2.11,1.3711 -4.18,2.8125 -6.25,4.3711 -1.25,0.9414 -2.46,2 -3.6,3.1289 -1.17,1.1719 -2.03,2.461 -2.65,3.9024 -0.55,1.4883 -0.78,3.2109 -0.78,5.1601 0.07,1.8789 0.78,4.1407 2.03,6.7188 1.44,3.0508 3.32,4.7695 5.62,5.1601 2.39,0.3086 4.89,-0.6679 7.5,-2.9687 3.21,-2.8203 7.03,-5.1992 11.41,-7.1914 4.37,-1.9492 10.31,-2.8477 17.81,-2.6602 3.75,0 7.07,0.5899 10,1.7188 2.89,1.0625 5.31,2.4609 7.19,4.2226 1.95,1.6797 3.48,3.5586 4.53,5.6289 1.02,2.1094 1.56,3.9805 1.56,5.7813 l 0,14.0586 c -2.3,-6.0586 -5.93,-10.5508 -10.93,-13.4414 -4.93,-2.8086 -10.63,-4.2188 -17.19,-4.2188 -6.49,0 -12.42,1.1407 -17.81,3.4414 -5.43,2.3789 -10.08,5.8594 -13.91,10.4688 -3.87,4.6914 -6.88,10.3516 -9.06,17.0312 -2.11,6.7579 -3.13,14.5274 -3.13,23.2774 0,10.8207 1.17,19.7307 3.6,26.7227 2.5,6.949 5.78,12.5 9.84,16.559 4.06,4.07 8.75,6.878 14.06,8.441 5.39,1.641 10.98,2.5 16.72,2.5 6.33,0 11.95,-1.723 16.88,-5.16 5,-3.352 8.74,-8.391 11.24,-15.153 l 0,7.973 c 0,2.07 1.02,4.289 3.13,6.719 2.07,2.379 5.23,3.59 9.53,3.59 4.26,0 7.38,-1.211 9.38,-3.59 2.07,-2.43 3.12,-4.649 3.12,-6.719 l 0,-92.4999 z m -71.72,51.0898 c 0,-5.8593 0.55,-10.6992 1.72,-14.5312 1.13,-3.75 2.74,-6.8399 4.84,-9.2188 2.19,-2.3007 4.73,-3.9101 7.66,-4.8398 3.01,-0.9414 6.41,-1.4102 10.16,-1.4102 7.58,0 13.16,2.3399 16.72,7.0274 3.63,4.7734 5.39,12.3828 5.31,22.8125 -0.12,20.9372 -7.62,31.4882 -22.5,31.7192 -7.19,0.082 -13.05,-2.301 -17.5,-7.18 -4.38,-4.809 -6.52,-12.93 -6.41,-24.3791 z"
         style="fill:#000000;fill-opacity:1;fill-rule:nonzero;stroke:none"
         id="path82"
         inkscape:connector-curvature="0" /><path
         d="m 3706.56,101.988 c 0,4.262 -0.27,8.012 -0.78,11.25 -0.55,3.321 -1.52,6.024 -2.97,8.133 -1.36,2.18 -3.36,3.789 -5.93,4.84 -2.5,1.019 -5.71,1.559 -9.54,1.559 -3.24,0 -6.21,-0.391 -8.9,-1.09 -2.74,-0.629 -5.08,-1.84 -7.03,-3.59 -1.88,-1.801 -3.4,-4.34 -4.53,-7.66 -1.18,-3.239 -1.72,-7.418 -1.72,-12.5 l 0,-56.5589 c 0,-2.3125 -1.21,-4.3008 -3.6,-5.9414 -2.3,-1.6406 -5.23,-2.5 -8.75,-2.5 -3.67,0 -6.68,0.9023 -9.06,2.6601 -2.3,1.75 -3.44,3.6719 -3.44,5.7813 l 0,93.2769 c 0,2.383 1.25,4.372 3.75,5.942 2.5,1.558 5.47,2.34 8.91,2.34 3.44,0 6.29,-0.782 8.59,-2.34 2.39,-1.57 3.6,-3.559 3.6,-5.942 l 0,-9.847 c 1.25,2.39 2.69,4.769 4.37,7.187 1.64,2.391 3.63,4.532 5.94,6.41 2.26,1.954 4.92,3.512 7.97,4.692 3.01,1.25 6.44,1.871 10.31,1.871 5.7,0 10.86,-0.859 15.47,-2.5 4.69,-1.563 8.63,-3.91 11.87,-7.031 3.21,-3.129 5.71,-7.11 7.5,-11.879 1.88,-4.801 2.82,-10.391 2.82,-16.711 l 0,-65.4689 c 0,-2.4219 -1.1,-4.3828 -3.29,-5.9414 -2.18,-1.6406 -5.15,-2.5 -8.9,-2.5 -3.75,0 -6.84,0.8594 -9.22,2.5 -2.3,1.5586 -3.44,3.5195 -3.44,5.9414 l 0,55.6169 z"
         style="fill:#000000;fill-opacity:1;fill-rule:nonzero;stroke:none"
         id="path84"
         inkscape:connector-curvature="0" /><path
         d="m 142.699,714.691 c 29.063,0 54.102,-4.961 75.153,-14.851 21.128,-9.918 38.519,-23.551 52.187,-40.93 13.633,-17.308 23.672,-37.82 30.16,-61.57 6.563,-23.668 9.84,-49.289 9.84,-76.871 0,-29.61 -3.398,-56.41 -10.16,-80.469 -6.68,-24.059 -16.949,-44.691 -30.777,-61.879 -13.75,-17.18 -30.903,-30.461 -51.403,-39.84 -20.551,-9.261 -44.609,-13.902 -72.187,-13.902 l -106.4104,0 c -13.1211,0 -21.4805,2.141 -25,6.402 -3.5508,4.379 -5.31254,10.629 -5.31254,18.75 l 0,340 c 0,8.199 1.64064,14.449 5.00004,18.75 3.4414,4.258 11.8711,6.41 25.3125,6.41 l 103.5974,0 z M 81.6016,382.66 l 63.9104,0 c 61.129,0 91.718,46.442 91.718,139.371 0,21.328 -1.679,40.391 -5,57.188 -3.359,16.761 -9.14,30.82 -17.351,42.191 -8.238,11.442 -19.059,20.149 -32.5,26.09 -13.43,5.941 -30.43,8.91 -50.93,8.91 l -49.8474,0 0,-273.75 z"
         style="fill:#000000;fill-opacity:1;fill-rule:nonzero;stroke:none"
         id="path86"
         inkscape:connector-curvature="0" /><path
         d="m 432.23,347.969 c 0,-7.11 -3.21,-13.707 -9.531,-19.848 -6.371,-6.242 -14.969,-9.371 -25.789,-9.371 -10.859,0 -19.449,3.051 -25.781,9.059 -6.359,5.941 -9.527,12.66 -9.527,20.16 l 0,246.41 c 0,11.133 3.668,19.293 11.097,24.531 7.5,5.309 15.539,7.969 24.211,7.969 8.52,0 16.57,-2.578 24.07,-7.66 7.5,-5 11.25,-13.278 11.25,-24.84 l 0,-246.41 z m -73.441,346.09 c 0,10.82 3.633,19.851 10.941,27.031 7.258,7.269 16.321,10.941 27.18,10.941 10.82,0 19.891,-3.672 27.192,-10.941 7.269,-7.18 10.937,-16.211 10.937,-27.031 0,-10.86 -3.668,-19.918 -10.937,-27.18 -7.301,-7.309 -16.372,-10.938 -27.192,-10.938 -10.859,0 -19.922,3.629 -27.18,10.938 -7.308,7.262 -10.941,16.32 -10.941,27.18 z"
         style="fill:#000000;fill-opacity:1;fill-rule:nonzero;stroke:none"
         id="path88"
         inkscape:connector-curvature="0" /><path
         d="m 750.352,338.91 c 0,-17.191 -3.672,-32.859 -10.942,-47.031 -7.301,-14.149 -17.18,-26.18 -29.68,-36.098 -12.5,-9.883 -27.46,-17.422 -44.851,-22.66 -17.297,-5.191 -36.047,-7.652 -56.25,-7.34 -13.75,0 -25.578,0.899 -35.469,2.66 -9.922,1.68 -18.711,4.141 -26.398,7.34 -7.621,3.129 -14.34,6.68 -20.16,10.629 -5.743,3.86 -11.641,8.039 -17.653,12.5 -3.359,2.61 -6.648,5.539 -9.847,8.75 -3.122,3.121 -5.551,6.789 -7.192,10.93 -1.68,4.07 -2.461,8.832 -2.34,14.219 0.2,5.429 2.032,11.679 5.469,18.75 4.063,8.562 9.371,13.281 15.941,14.222 6.559,0.938 13.508,-1.761 20.93,-8.121 8.949,-7.82 19.57,-14.539 31.879,-20.16 12.383,-5.621 29.063,-8.012 50,-7.191 10.391,0 19.731,1.531 27.973,4.531 8.199,2.93 15,6.84 20.308,11.719 5.391,4.812 9.532,10.121 12.34,15.941 2.82,5.738 4.219,11.172 4.219,16.41 l 0,39.211 c -6.359,-16.789 -16.481,-29.172 -30.309,-37.18 -13.75,-8.05 -29.8,-12.031 -48.121,-12.031 -18.25,0 -34.929,3.199 -50,9.68 -15.121,6.57 -28.09,16.289 -38.91,29.219 -10.859,12.89 -19.301,28.793 -25.309,47.66 -5.941,18.832 -8.91,40.551 -8.91,65.152 0,30.199 3.442,55.078 10.309,74.688 6.961,19.691 16.141,35.203 27.5,46.57 11.332,11.32 24.461,19.25 39.383,23.742 15,4.461 30.508,6.719 46.558,6.719 17.891,0 33.75,-4.758 47.5,-14.219 13.828,-9.492 24.301,-23.742 31.41,-42.812 l 0,22.351 c 0,5.93 2.891,12.262 8.75,19.059 5.821,6.761 14.68,10.16 26.559,10.16 11.949,0 20.82,-3.399 26.563,-10.16 5.82,-6.797 8.75,-13.129 8.75,-19.059 l 0,-258.75 z m -201.09,142.809 c 0,-16.367 1.558,-29.918 4.687,-40.629 3.199,-10.621 7.813,-19.211 13.75,-25.781 6.012,-6.477 13.199,-11.008 21.563,-13.59 8.437,-2.617 17.886,-3.91 28.437,-3.91 21.25,0 36.871,6.601 46.871,19.851 10.078,13.199 15,34.41 14.692,63.59 -0.43,58.52 -21.371,88.199 -62.813,89.059 -20.117,0.312 -36.41,-6.36 -48.91,-20 -12.5,-13.668 -18.59,-36.52 -18.277,-68.59 z"
         style="fill:#000000;fill-opacity:1;fill-rule:nonzero;stroke:none"
         id="path90"
         inkscape:connector-curvature="0" /><path
         d="m 878.48,347.969 c 0,-7.11 -3.21,-13.707 -9.531,-19.848 -6.371,-6.242 -14.969,-9.371 -25.789,-9.371 -10.859,0 -19.449,3.051 -25.781,9.059 -6.359,5.941 -9.527,12.66 -9.527,20.16 l 0,246.41 c 0,11.133 3.668,19.293 11.097,24.531 7.5,5.309 15.539,7.969 24.211,7.969 8.52,0 16.57,-2.578 24.07,-7.66 7.5,-5 11.25,-13.278 11.25,-24.84 l 0,-246.41 z m -73.441,346.09 c 0,10.82 3.633,19.851 10.941,27.031 7.258,7.269 16.321,10.941 27.18,10.941 10.82,0 19.891,-3.672 27.192,-10.941 7.269,-7.18 10.937,-16.211 10.937,-27.031 0,-10.86 -3.668,-19.918 -10.937,-27.18 -7.301,-7.309 -16.372,-10.938 -27.192,-10.938 -10.859,0 -19.922,3.629 -27.18,10.938 -7.308,7.262 -10.941,16.32 -10.941,27.18 z"
         style="fill:#000000;fill-opacity:1;fill-rule:nonzero;stroke:none"
         id="path92"
         inkscape:connector-curvature="0" /><path
         d="m 1103.01,649.691 0,-301.722 c 0,-7.5 -2.81,-14.219 -8.44,-20.16 -5.55,-6.008 -14.8,-9.059 -27.81,-9.059 -13.13,0 -22.5,3.199 -28.13,9.531 -5.54,6.328 -8.28,12.891 -8.28,19.688 l 0,301.722 -71.721,0 c -6.789,0 -13.359,2.418 -19.68,7.34 -6.371,4.879 -9.539,13.278 -9.539,25.16 0,11.559 2.969,19.84 8.91,24.84 6.02,5.078 12.809,7.66 20.309,7.66 l 216.101,0 c 7.5,0 14.22,-2.582 20.15,-7.66 6.02,-5 9.07,-13.281 9.07,-24.84 0,-11.882 -3.21,-20.281 -9.54,-25.16 -6.36,-4.922 -12.93,-7.34 -19.68,-7.34 l -71.72,0 z"
         style="fill:#000000;fill-opacity:1;fill-rule:nonzero;stroke:none"
         id="path94"
         inkscape:connector-curvature="0" /><path
         d="m 1334.88,424.691 54.22,174.688 c 2.58,7.812 6.95,14.293 13.13,19.531 6.25,5.309 13.04,7.969 20.47,7.969 7.5,0 14.29,-2.578 20.46,-7.66 6.14,-5 10.51,-11.637 13.13,-19.84 l 54.37,-174.219 52.04,177.031 c 2.26,7.5 6.4,13.469 12.34,17.969 6.01,4.449 12.73,6.719 20.16,6.719 5.62,0 10.31,-0.789 14.06,-2.348 3.75,-1.48 6.72,-3.359 8.9,-5.621 2.27,-2.191 3.91,-4.609 4.85,-7.191 0.94,-2.617 1.56,-5.078 1.87,-7.34 0.71,-3.047 0.35,-7.5 -1.09,-13.438 -1.49,-5.941 -2.97,-11.019 -4.53,-15.16 l -75,-224.531 c -3.05,-9.691 -7.5,-17.5 -13.44,-23.441 -5.94,-6.008 -13.05,-9.059 -21.25,-9.059 -11.25,0 -19.96,4.141 -26.09,12.34 -6.18,8.211 -10.75,17.191 -13.75,26.879 L 1422.7,516.41 1373.48,357.969 c -3.36,-10.43 -8.05,-19.61 -14.07,-27.5 -5.93,-7.809 -14.14,-11.719 -24.53,-11.719 -7.11,0 -13.83,2.809 -20.15,8.441 -6.37,5.618 -11.41,13.829 -15.16,24.688 l -73.91,223.902 c -1.56,4.141 -3.08,9.219 -4.53,15.16 -1.48,5.938 -1.83,10.391 -1.09,13.438 0.39,2.262 1.01,4.723 1.87,7.34 0.94,2.582 2.5,5 4.69,7.191 2.27,2.262 5.31,4.141 9.06,5.621 3.75,1.559 8.44,2.348 14.07,2.348 7.5,0 14.22,-2.27 20.15,-6.719 5.94,-4.5 10.04,-10.469 12.35,-17.969 l 52.65,-177.5 z"
         style="fill:#000000;fill-opacity:1;fill-rule:nonzero;stroke:none"
         id="path96"
         inkscape:connector-curvature="0" /><path
         d="m 1733.79,347.969 c 0,-7.11 -3.2,-13.707 -9.53,-19.848 -6.37,-6.242 -14.96,-9.371 -25.78,-9.371 -10.86,0 -19.46,3.051 -25.78,9.059 -6.37,5.941 -9.54,12.66 -9.54,20.16 l 0,246.41 c 0,11.133 3.68,19.293 11.1,24.531 7.5,5.309 15.54,7.969 24.22,7.969 8.51,0 16.56,-2.578 24.06,-7.66 7.5,-5 11.25,-13.278 11.25,-24.84 l 0,-246.41 z m -73.44,346.09 c 0,10.82 3.63,19.851 10.94,27.031 7.26,7.269 16.33,10.941 27.19,10.941 10.82,0 19.88,-3.672 27.18,-10.941 7.27,-7.18 10.94,-16.211 10.94,-27.031 0,-10.86 -3.67,-19.918 -10.94,-27.18 -7.3,-7.309 -16.36,-10.938 -27.18,-10.938 -10.86,0 -19.93,3.629 -27.19,10.938 -7.31,7.262 -10.94,16.32 -10.94,27.18 z"
         style="fill:#000000;fill-opacity:1;fill-rule:nonzero;stroke:none"
         id="path98"
         inkscape:connector-curvature="0" /><path
         d="m 1981.29,497.969 c 0,11.953 -0.74,22.543 -2.19,31.722 -1.48,9.141 -4.18,16.719 -8.12,22.649 -3.99,5.941 -9.5,10.39 -16.57,13.441 -7.11,3.008 -16.05,4.528 -26.87,4.528 -8.99,0 -17.31,-0.93 -25,-2.809 -7.62,-1.879 -14.14,-5.391 -19.53,-10.469 -5.43,-5 -9.69,-12.109 -12.81,-21.25 -3.13,-9.179 -4.69,-20.859 -4.69,-35 l 0,-158.441 c 0,-6.36 -3.28,-11.871 -9.85,-16.559 -6.56,-4.691 -14.92,-7.031 -25,-7.031 -10,0 -18.28,2.461 -24.84,7.34 -6.56,4.89 -9.84,10.32 -9.84,16.25 l 0,260.941 c 0,6.758 3.43,12.379 10.31,16.879 6.95,4.449 15.31,6.719 25,6.719 9.69,0 17.81,-2.27 24.37,-6.719 6.57,-4.5 9.85,-10.121 9.85,-16.879 l 0,-27.5 c 3.32,6.758 7.26,13.481 11.87,20.16 4.69,6.758 10.32,12.848 16.88,18.278 6.56,5.39 13.98,9.761 22.34,13.121 8.44,3.32 18.05,5 28.91,5 16.01,0 30.47,-2.258 43.28,-6.719 12.89,-4.492 23.94,-11.09 33.12,-19.84 9.14,-8.75 16.25,-19.84 21.25,-33.281 5.08,-13.441 7.66,-29.141 7.66,-47.031 l 0,-183.129 c 0,-6.789 -3.09,-12.379 -9.22,-16.871 -6.17,-4.449 -14.49,-6.719 -25,-6.719 -10.43,0 -18.9,2.27 -25.47,6.719 -6.56,4.492 -9.84,10.082 -9.84,16.871 l 0,155.629 z"
         style="fill:#000000;fill-opacity:1;fill-rule:nonzero;stroke:none"
         id="path100"
         inkscape:connector-curvature="0" /></g></g></svg>