<?xml version="1.0" encoding="UTF-8" standalone="no"?>
<!-- Created with Inkscape (http://www.inkscape.org/) -->

<svg
   xmlns:dc="http://purl.org/dc/elements/1.1/"
   xmlns:cc="http://creativecommons.org/ns#"
   xmlns:rdf="http://www.w3.org/1999/02/22-rdf-syntax-ns#"
   xmlns:svg="http://www.w3.org/2000/svg"
   xmlns="http://www.w3.org/2000/svg"
   xmlns:sodipodi="http://sodipodi.sourceforge.net/DTD/sodipodi-0.dtd"
   xmlns:inkscape="http://www.inkscape.org/namespaces/inkscape"
   id="svg2"
   version="1.1"
   inkscape:version="0.91 r13725"
   xml:space="preserve"
   width="18.5cm"
   height="2.7851806cm"
   viewBox="0 0 655.5118 98.6875"
   sodipodi:docname="UoL_Color.svg"><metadata
     id="metadata8"><rdf:RDF><cc:Work
         rdf:about=""><dc:format>image/svg+xml</dc:format><dc:type
           rdf:resource="http://purl.org/dc/dcmitype/StillImage" /><dc:title></dc:title></cc:Work></rdf:RDF></metadata><defs
     id="defs6"><clipPath
       clipPathUnits="userSpaceOnUse"
       id="clipPath46"><path
         d="m 183.371,377.262 c -0.621,0.093 -1.254,0.203 -1.875,0.273 -0.926,0.133 -1.867,0.25 -2.816,0.356 -27.11,2.543 -51.246,-6.129 -63.801,-11.875 l -4.152,-10.149 c 0,0 76.277,49.922 134.503,-14.023 0,0 -21.378,28.894 -61.859,35.418 z"
         id="path48"
         inkscape:connector-curvature="0" /></clipPath><linearGradient
       x1="0"
       y1="0"
       x2="1"
       y2="0"
       gradientUnits="userSpaceOnUse"
       gradientTransform="matrix(134.504,0,0,-134.504,110.728,360.095)"
       spreadMethod="pad"
       id="linearGradient50"><stop
         style="stop-opacity:1;stop-color:#ffffff"
         offset="0"
         id="stop52" /><stop
         style="stop-opacity:1;stop-color:#645da5"
         offset="0.938202"
         id="stop54" /><stop
         style="stop-opacity:1;stop-color:#645da5"
         offset="1"
         id="stop56" /></linearGradient><clipPath
       clipPathUnits="userSpaceOnUse"
       id="clipPath64"><path
         d="m 379.5,364.379 c -12.926,5.609 -39.582,15.273 -68.98,11.246 39.371,2.289 72.148,-19.504 72.148,-19.504 l -3.168,8.258 z"
         id="path66"
         inkscape:connector-curvature="0" /></clipPath><linearGradient
       x1="0"
       y1="0"
       x2="1"
       y2="0"
       gradientUnits="userSpaceOnUse"
       gradientTransform="matrix(72.1497,0,0,-72.1497,310.518,366.351)"
       spreadMethod="pad"
       id="linearGradient68"><stop
         style="stop-opacity:1;stop-color:#645da5"
         offset="0"
         id="stop70" /><stop
         style="stop-opacity:1;stop-color:#645da5"
         offset="0.0955056"
         id="stop72" /><stop
         style="stop-opacity:1;stop-color:#ffffff"
         offset="1"
         id="stop74" /></linearGradient><clipPath
       clipPathUnits="userSpaceOnUse"
       id="clipPath82"><path
         d="m 109.871,370.598 -4.148,-9.239 c 0,0 45.398,26.532 92.25,12.918 -37.262,12.321 -73.953,1.825 -88.102,-3.679 z"
         id="path84"
         inkscape:connector-curvature="0" /></clipPath><linearGradient
       x1="0"
       y1="0"
       x2="1"
       y2="0"
       gradientUnits="userSpaceOnUse"
       gradientTransform="matrix(92.2524,0,0,-92.2524,105.721,370.691)"
       spreadMethod="pad"
       id="linearGradient86"><stop
         style="stop-opacity:1;stop-color:#ffffff"
         offset="0"
         id="stop88" /><stop
         style="stop-opacity:1;stop-color:#7970b2"
         offset="0.938202"
         id="stop90" /><stop
         style="stop-opacity:1;stop-color:#7970b2"
         offset="1"
         id="stop92" /></linearGradient><clipPath
       clipPathUnits="userSpaceOnUse"
       id="clipPath100"><path
         d="m 283.16,368.629 c 51.953,21.523 104.68,-8.254 104.68,-8.254 l -3.442,8.23 c -14.507,5.872 -57.785,19.86 -101.238,0.024 z"
         id="path102"
         inkscape:connector-curvature="0" /></clipPath><linearGradient
       x1="0"
       y1="0"
       x2="1"
       y2="0"
       gradientUnits="userSpaceOnUse"
       gradientTransform="matrix(104.678,0,0,-104.678,283.162,369.633)"
       spreadMethod="pad"
       id="linearGradient104"><stop
         style="stop-opacity:1;stop-color:#7970b2"
         offset="0"
         id="stop106" /><stop
         style="stop-opacity:1;stop-color:#7970b2"
         offset="0.0955056"
         id="stop108" /><stop
         style="stop-opacity:1;stop-color:#ffffff"
         offset="1"
         id="stop110" /></linearGradient><clipPath
       clipPathUnits="userSpaceOnUse"
       id="clipPath120"><path
         d="m 103.582,366.48 c 0,0 81.004,40.653 141.828,-25.3 l 3.262,119.304 c 0,0 -57.707,42.317 -108.195,-2.351 L 103.582,366.48 Z"
         id="path122"
         inkscape:connector-curvature="0" /></clipPath><linearGradient
       x1="0"
       y1="0"
       x2="1"
       y2="0"
       gradientUnits="userSpaceOnUse"
       gradientTransform="matrix(145.09,0,0,-145.09,103.582,409.897)"
       spreadMethod="pad"
       id="linearGradient124"><stop
         style="stop-opacity:1;stop-color:#ffffff"
         offset="0"
         id="stop126" /><stop
         style="stop-opacity:1;stop-color:#ffffff"
         offset="0.731959"
         id="stop128" /><stop
         style="stop-opacity:1;stop-color:#9087c0"
         offset="1"
         id="stop130" /></linearGradient><clipPath
       clipPathUnits="userSpaceOnUse"
       id="clipPath138"><path
         d="m 389.531,366.363 c 0,0 -81.668,40.985 -144.121,-25.183 l 3.262,119.304 c 0,0 62.156,44.286 105.859,-1.871 l 35,-92.25 z"
         id="path140"
         inkscape:connector-curvature="0" /></clipPath><linearGradient
       x1="0"
       y1="0"
       x2="1"
       y2="0"
       gradientUnits="userSpaceOnUse"
       gradientTransform="matrix(64.041,0,0,-64.041,226.436,410.402)"
       spreadMethod="pad"
       id="linearGradient142"><stop
         style="stop-opacity:1;stop-color:#7970b2"
         offset="0"
         id="stop144" /><stop
         style="stop-opacity:1;stop-color:#7970b2"
         offset="0.0955056"
         id="stop146" /><stop
         style="stop-opacity:1;stop-color:#ffffff"
         offset="1"
         id="stop148" /></linearGradient></defs><sodipodi:namedview
     pagecolor="#ffffff"
     bordercolor="#666666"
     borderopacity="1"
     objecttolerance="10"
     gridtolerance="10"
     guidetolerance="10"
     inkscape:pageopacity="0"
     inkscape:pageshadow="2"
     inkscape:window-width="1920"
     inkscape:window-height="1017"
     id="namedview4"
     showgrid="false"
     inkscape:zoom="1.9019316"
     inkscape:cx="344.1535"
     inkscape:cy="22.167706"
     inkscape:window-x="-8"
     inkscape:window-y="-8"
     inkscape:window-maximized="1"
     inkscape:current-layer="g10"
     units="cm" /><g
     id="g10"
     inkscape:groupmode="layer"
     inkscape:label="ink_ext_XXXXXX"
     transform="matrix(1.25,0,0,-1.25,0,98.687498)"><g
       id="g12"
       transform="matrix(0.1,0,0,0.1,1.6,0)"><path
         d="m 3136.69,773.504 0,-767.2071"
         style="fill:none;stroke:#222c77;stroke-width:5.36999989;stroke-linecap:butt;stroke-linejoin:miter;stroke-miterlimit:4;stroke-dasharray:none;stroke-opacity:1"
         id="path14"
         inkscape:connector-curvature="0" /><path
         d="m 496.316,747.82 c 0,0 -93.804,15.192 -243.933,15.192 l 0.019,0 c -150.125,0 -243.93325,-15.196 -243.93325,-15.196 0,0 -50.83205,-373.211 96.57425,-597.144 C 155.004,74.7617 252.086,0.242188 252.387,0.0117188 l -0.02,0 L 252.383,0 252.395,0.00390625 252.402,0 l 0.016,0.0117188 -0.02,0 C 252.699,0.242188 349.781,74.7617 399.742,150.672 547.148,374.609 496.316,747.82 496.316,747.82"
         style="fill:#222c77;fill-opacity:1;fill-rule:nonzero;stroke:none"
         id="path16"
         inkscape:connector-curvature="0" /><path
         d="m 41.2734,661.113 c 0.4024,-1.73 1.0899,-2.914 1.0899,-2.914 3.0156,4.754 9.2656,5.266 13.75,4.926 -3.2227,0.59 -10.293,1.352 -14.8399,-2.012"
         style="fill:#231f20;fill-opacity:1;fill-rule:nonzero;stroke:none"
         id="path18"
         inkscape:connector-curvature="0" /><path
         d="m 107.402,505.949 c -0.527,-0.039 -1.054,-0.117 -1.589,-0.215 -0.043,-0.004 -0.09,-0.011 -0.137,-0.023 -0.504,-0.094 -1.004,-0.203 -1.5,-0.336 -0.055,-0.008 -0.11,-0.023 -0.168,-0.039 -0.504,-0.133 -1.02,-0.285 -1.528,-0.445 -0.031,-0.008 -0.062,-0.024 -0.085,-0.028 -0.532,-0.172 -1.051,-0.355 -1.571,-0.554 -0.051,-0.02 -0.097,-0.039 -0.156,-0.055 -0.473,-0.184 -0.9492,-0.371 -1.4102,-0.57 -0.0625,-0.032 -0.1172,-0.051 -0.1758,-0.079 -0.4804,-0.203 -0.9492,-0.421 -1.4101,-0.632 -0.0156,-0.008 -0.0313,-0.02 -0.0469,-0.028 -0.9844,-0.461 -1.9062,-0.929 -2.7383,-1.382 -0.3711,-0.883 -0.6133,-1.805 -0.6875,-2.762 0,0 9.1138,6.16 16.6208,6.82 12.59,1.145 20.059,0.125 35.332,-1.039 -17.754,1.891 -25.347,2.574 -38.75,1.367 z m 25.215,43.309 c -0.476,0.004 -0.941,-0.02 -1.394,-0.055 -0.075,-0.004 -0.149,-0.012 -0.215,-0.019 -0.449,-0.043 -0.883,-0.094 -1.301,-0.18 -0.269,-0.063 -0.551,-0.094 -0.828,-0.145 -7.57,-15.648 -2.168,-35.777 -2.168,-35.777 0.383,-0.078 0.75,-0.156 1.102,-0.238 10.507,-2.403 20.179,-7.594 21.847,-8.512 0.996,-0.074 2.016,-0.141 3.082,-0.211 0,0 -10.664,6.109 -22.633,8.637 0,0 -5.582,20.797 2.508,36.5 z m 74.891,85.777 16.265,-7.316 c -0.457,-1.082 -0.937,-2.164 -1.425,-3.25 -3.426,-7.528 -7.625,-15.09 -12.743,-21.942 -0.023,-0.023 -0.039,-0.05 -0.058,-0.078 L 212.223,601 c 6.261,8.133 11.203,17.379 15.039,26.383 l -15.735,7.039 -4.019,0.613 z m 28.051,31.781 c -0.368,-1.937 -0.938,-4.761 -1.739,-8.195 -0.031,-0.129 -0.062,-0.258 -0.093,-0.387 -0.125,-0.523 -0.258,-1.066 -0.391,-1.613 -0.086,-0.328 -0.164,-0.652 -0.246,-0.984 -0.067,-0.274 -0.145,-0.551 -0.215,-0.832 -0.105,-0.414 -0.215,-0.84 -0.324,-1.27 -0.059,-0.199 -0.106,-0.398 -0.16,-0.597 -0.164,-0.625 -0.34,-1.266 -0.52,-1.911 -0.051,-0.191 -0.101,-0.382 -0.152,-0.566 -0.18,-0.633 -0.364,-1.27 -0.551,-1.914 -0.023,-0.074 -0.043,-0.149 -0.063,-0.223 -0.218,-0.75 -0.449,-1.511 -0.683,-2.277 -0.031,-0.121 -0.07,-0.238 -0.106,-0.352 -0.492,-1.597 -1.015,-3.25 -1.586,-4.941 -0.015,-0.051 -0.035,-0.098 -0.046,-0.149 -0.899,-2.636 -1.875,-5.363 -2.965,-8.14 l 3.418,-0.508 c 7.804,19.918 10.347,37.492 10.347,37.492 -1.254,-0.929 -2.562,-1.797 -3.925,-2.633 z m -42.489,-56.941 12.461,-12.414 c -0.468,-0.531 -0.945,-1.066 -1.418,-1.594 -0.136,-0.14 -0.273,-0.281 -0.41,-0.426 -0.348,-0.371 -0.695,-0.746 -1.051,-1.117 -0.183,-0.183 -0.367,-0.363 -0.55,-0.551 -0.309,-0.312 -0.629,-0.625 -0.946,-0.937 -0.207,-0.211 -0.429,-0.418 -0.648,-0.617 -0.289,-0.281 -0.574,-0.551 -0.863,-0.824 -0.254,-0.219 -0.497,-0.438 -0.747,-0.665 -0.269,-0.246 -0.539,-0.484 -0.812,-0.714 -0.27,-0.239 -0.555,-0.469 -0.828,-0.7 -0.25,-0.211 -0.5,-0.418 -0.758,-0.625 -0.305,-0.242 -0.598,-0.488 -0.906,-0.726 -0.235,-0.184 -0.465,-0.36 -0.696,-0.539 -0.339,-0.242 -0.679,-0.5 -1.023,-0.75 -0.191,-0.149 -0.398,-0.281 -0.602,-0.434 -0.375,-0.262 -0.753,-0.527 -1.136,-0.789 -0.157,-0.105 -0.321,-0.211 -0.481,-0.312 -0.426,-0.282 -0.855,-0.567 -1.301,-0.84 -0.082,-0.055 -0.16,-0.102 -0.25,-0.153 -3.351,-2.054 -6.933,-3.777 -10.761,-5.089 -0.028,-0.004 -0.051,-0.016 -0.071,-0.024 l 0.668,-1.262 c 11.75,3.262 21.309,10.383 29.047,19.29 l -9.117,9.113 -6.801,3.699 z M 64.1836,644.422 c 1.3359,2.933 2.4141,7.047 2.6328,12.308 0,0 0,0 -0.0039,0 l -0.0586,5.231 c -0.0117,0.195 -0.0195,0.398 -0.0351,0.605 l 0.0312,0 -0.0078,0.575 c 0,0 -1.3047,2.777 -3.043,1.386 0,0 1.0391,-0.609 1.125,-2.523 0.0938,-1.918 -0.1719,-5.473 -0.1719,-5.473 -0.371,-4.312 -1.3398,-8.379 -2.6523,-11.914 0.5469,-0.711 1.5117,-1.492 2.0625,-2.097 0.3164,-0.313 1.543,-1.895 0.8398,-4.036 -0.8632,-2.074 -2.2109,-5.089 -2.9726,-5.914 -0.207,-0.25 -0.3672,-0.55 -0.5039,-0.867 0.5508,-0.863 1.0312,-1.867 1.0508,-1.961 0.4531,0.039 0.5586,1.973 1.3984,2.942 0.7539,0.859 2.1055,3.847 2.9531,5.933 0.7188,2.137 -0.5039,3.727 -0.8164,4.039 -0.4765,0.5 -1.2695,1.149 -1.8281,1.766 z M 59.0352,632.23 c -0.086,0.114 -0.1758,0.215 -0.2579,0.301 -0.1132,0.176 -0.3867,0.34 -0.7304,0.524 -0.9453,-2.082 -2.2891,-3.375 -3.1016,-3.844 -0.1406,-0.074 -0.2969,-0.148 -0.4687,-0.211 -0.1055,-0.039 -0.2149,-0.074 -0.3243,-0.109 -0.0625,-0.016 -0.125,-0.036 -0.1953,-0.055 -0.1445,-0.043 -0.3007,-0.086 -0.457,-0.117 -0.0273,-0.012 -0.0469,-0.016 -0.0742,-0.024 -0.1758,-0.039 -0.3555,-0.07 -0.5352,-0.101 0.9102,-0.071 2.8633,0.156 3.9922,0.742 0.625,0.375 1.5586,1.238 2.3945,2.566 -0.0312,0.039 -0.0703,0.094 -0.0976,0.137 -0.0469,0.063 -0.0938,0.137 -0.1445,0.191 z m 46.6098,-3.402 c 0.218,-0.094 0.449,-0.191 0.675,-0.305 0.102,-0.046 0.196,-0.085 0.289,-0.136 0.204,-0.098 0.411,-0.192 0.629,-0.293 0.305,-0.153 0.614,-0.317 0.93,-0.489 0.148,-0.078 0.309,-0.167 0.461,-0.246 0.242,-0.144 0.5,-0.277 0.762,-0.433 0.148,-0.082 0.289,-0.164 0.433,-0.25 0.403,-0.242 0.821,-0.485 1.25,-0.758 0,0 0.082,-0.059 0.235,-0.156 l 0.004,0 c 0.078,-0.051 0.171,-0.114 0.281,-0.184 l 0.008,0 c 1.457,-0.922 5.882,-3.379 11.265,-3.363 -4.898,0.89 -8.363,3.394 -8.363,3.394 -5.316,3.286 -8.551,4.301 -10.254,3.746 0.43,-0.14 0.898,-0.312 1.395,-0.527 l 0,0 z m -11.4067,41.86 c -0.336,0.05 -3.8047,0.867 -5.4922,1.277 -1.7227,0.39 -3.7773,1.41 -6.2852,1.41 -2.1132,0 -11.4336,-4.875 -11.4336,-4.875 0.4336,-0.16 6.4219,1.938 7.6485,2.188 1.2695,0.191 1.1523,0.05 1.8515,0 0.0938,-1.317 1.1758,-1.649 2.8321,-1.668 1.6797,0 2.8008,1.066 3.1172,1.492 1.957,-0.637 4.9218,-0.68 6.3242,-0.489 1.1055,0.153 1.75,0.489 1.4375,0.665 z m 70.5897,-70.661 5.902,-23.113 c -0.523,-0.086 -1.046,-0.164 -1.578,-0.23 -0.047,-0.012 -0.093,-0.012 -0.148,-0.02 -0.477,-0.059 -0.953,-0.117 -1.438,-0.168 -0.164,-0.016 -0.332,-0.031 -0.492,-0.043 -0.363,-0.039 -0.734,-0.074 -1.101,-0.105 -0.301,-0.02 -0.61,-0.039 -0.914,-0.055 -0.235,-0.012 -0.457,-0.031 -0.688,-0.035 -0.441,-0.028 -0.883,-0.043 -1.324,-0.051 -0.102,-0.004 -0.199,-0.012 -0.293,-0.012 -1.633,-0.023 -3.293,0.012 -5.004,0.133 1.047,-0.137 2.078,-0.25 3.098,-0.324 4.707,-0.356 9.144,-0.145 13.32,0.523 l -2.93,11.493 -6.41,12.007 z M 112.254,548.43 c 1,-0.825 1.879,-1.602 2.644,-2.34 0.102,-0.09 0.2,-0.211 0.293,-0.309 0.485,-0.48 0.899,-0.929 1.289,-1.363 0.356,-0.387 0.7,-0.789 1.028,-1.211 0.09,-0.121 0.187,-0.234 0.273,-0.359 1.336,-1.782 2.407,-3.77 2.407,-5.614 l 0,6.543 c -1.333,1.536 -2.75,2.817 -3.645,3.575 l -4.289,1.078 z m -61.1368,80.015 c -0.1484,0.012 -0.2852,0.024 -0.3906,0.039 -0.086,0.016 -0.1875,0.016 -0.2891,0.004 -0.0469,0 -0.0898,-0.011 -0.1367,-0.019 -0.0547,0 -0.1133,-0.012 -0.1758,-0.028 -0.0547,-0.015 -0.1133,-0.031 -0.1758,-0.046 -0.0429,-0.016 -0.0937,-0.032 -0.1406,-0.051 -0.0742,-0.024 -0.1484,-0.047 -0.2188,-0.078 l -0.0078,-0.004 c -0.0234,-0.317 -0.0507,-0.586 -0.0156,-0.739 0.7266,0.278 1.457,0.696 2.0938,0.934 -0.1836,-0.012 -0.3438,-0.012 -0.4883,-0.012 -0.0235,0 -0.0391,0 -0.0547,0 z m 5.7539,18.106 c 0.1484,-0.051 0.2852,-0.094 0.4219,-0.137 0.1836,-0.051 0.3554,-0.105 0.5195,-0.144 0.0547,-0.02 0.1133,-0.036 0.1719,-0.051 0.1836,-0.051 0.3594,-0.09 0.5078,-0.121 0.0742,0.203 0.1367,0.406 0.207,0.609 -1.9648,0.625 -4.5156,1.539 -5.4687,1.398 -0.3008,-0.05 -0.5586,-0.128 -0.8125,-0.242 1.2109,-0.238 2.9414,-0.843 4.3476,-1.289 0.0391,-0.008 0.0703,-0.019 0.1055,-0.023"
         style="fill:#231f20;fill-opacity:1;fill-rule:nonzero;stroke:none"
         id="path20"
         inkscape:connector-curvature="0" /><path
         d="m 236.055,669.773 c -25.649,-19.097 -78.364,-18.191 -86.739,-20.414 -8.359,-2.179 -5.75,-8.05 -5.75,-8.05 -11.664,-30.414 -32.492,-15.391 -32.492,-15.391 -15.9138,9.848 -13.0896,-0.613 -6.808,-12.797 -24.8793,3.09 -4.2816,37.543 4.461,44.203 9.332,7.098 19.64,26.684 19.64,26.684 -2.996,-3.36 -11.961,-9.684 -36.2537,-4.649 -10.7539,2.2 -18.2813,-4.515 -18.2813,-4.515 -46.875,4.148 -34.914,-16.246 -34.914,-16.246 5.0117,7.898 18.9297,4.156 18.9297,4.156 0.1093,-2.883 1.4765,-4.391 3.2304,-5.219 -0.375,-3.297 -1.1015,-7.383 -2.5859,-11.437 -1.7305,0.34 -5.9219,2.07 -7.2188,1.879 -3.6718,-0.571 -3.25,-5.918 -7.2617,-7.461 0.3828,-0.93 2.2149,-2.168 4.1406,-2.532 -1.7421,-1.98 -1.621,-5.3 -1.5976,-5.695 0.0781,-1.508 1.0976,-1.91 1.1445,-2.609 0.0938,-0.961 -0.1328,-1.918 -0.0703,-2.297 1.125,0.422 2.2852,1.23 3.0977,1.101 0.7461,-0.132 2.9961,0.079 4.2187,0.727 0.8125,0.469 2.1563,1.762 3.1016,3.844 0.3437,-0.184 0.6172,-0.348 0.7304,-0.524 0.7422,-0.742 1.7305,-2.773 1.7813,-2.926 0.4219,0.036 0.543,1.958 1.3711,2.965 0.7617,0.825 2.1094,3.84 2.9726,5.914 0.7032,2.141 -0.5234,3.723 -0.8398,4.036 -0.5508,0.605 -1.5156,1.386 -2.0625,2.097 1.3125,3.535 2.2813,7.602 2.6523,11.914 l 0,0 c 0,0 0.2657,3.555 0.1719,5.473 -0.0859,1.914 -1.125,2.523 -1.125,2.523 1.7383,1.391 3.043,-1.386 3.043,-1.386 l 0.0703,-6.411 c 2.375,0.215 4.293,0.825 4.293,0.825 0,0 15.0547,1.504 17.3515,-2.223 2.3321,-3.75 1.3594,-13.562 -11.9765,-37.852 -14.5664,-26.597 0.9453,-52.25 22.5742,-63.421 7.2653,-5.34 22.4253,-18.762 20.4843,-36.817 0,0 -27.7382,-5.625 -28.7499,-18.129 0,0 9.1015,6.192 16.6129,6.836 14.309,1.285 21.996,0.418 42.508,-1.761 0,0 -11.234,6.41 -23.199,8.894 0,0 -5.402,20.129 2.168,35.777 0.277,0.051 0.559,0.082 0.828,0.145 9.188,1.898 25.246,-7.066 25.246,-7.066 l -3.66,9.566 c 16.984,-2.5 25.289,-22.469 25.289,-22.469 -0.539,16.84 -11.633,33.774 -24.656,47.985 1.863,-0.293 3.695,-0.54 5.476,-0.672 4.719,-0.36 9.133,-0.102 13.328,0.566 l -5.902,23.113 11.672,-21.855 c 11.746,3.266 21.289,10.391 29.031,19.289 l -12.461,12.414 15.664,-8.512 c 6.278,8.125 11.196,17.356 15.039,26.356 l -16.265,7.316 18.137,-2.758 c 7.824,19.911 10.41,37.496 10.41,37.496 z M 120.188,537.234 c 0,1.844 -1.071,3.832 -2.407,5.614 -0.086,0.125 -0.183,0.238 -0.273,0.359 -0.328,0.422 -0.672,0.824 -1.028,1.211 -0.39,0.434 -0.804,0.883 -1.289,1.363 -0.093,0.098 -0.191,0.219 -0.293,0.309 -0.765,0.738 -1.644,1.515 -2.644,2.34 l 7.934,-1.992 0,-9.204 z M 86.4766,670.512 c -0.3164,-0.426 -1.4375,-1.492 -3.1172,-1.492 -1.6563,0.019 -2.7383,0.351 -2.8321,1.668 -0.6992,0.05 -0.582,0.191 -1.8515,0 -1.2266,-0.25 -7.2149,-2.348 -7.6485,-2.188 0,0 9.3204,4.875 11.4336,4.875 2.5079,0 4.5625,-1.02 6.2852,-1.41 1.6875,-0.41 5.1562,-1.227 5.4922,-1.277 0.3125,-0.176 -0.332,-0.512 -1.4375,-0.665 -1.4024,-0.191 -4.3672,-0.148 -6.3242,0.489"
         style="fill:#ffffff;fill-opacity:1;fill-rule:nonzero;stroke:none"
         id="path22"
         inkscape:connector-curvature="0" /><path
         d="m 151.293,551.504 3.23,-8.434 c 2.364,-1.109 3.887,-1.968 3.887,-1.968 l -3.472,9.539 c -1.168,0.371 -2.375,0.672 -3.645,0.863 z m 3.645,25.094 c -0.997,0.117 -2,0.257 -3.012,0.422 0.64,-0.704 1.277,-1.411 1.918,-2.122 0.086,-0.113 0.187,-0.218 0.285,-0.332 0.605,-0.691 1.199,-1.382 1.797,-2.074 0.101,-0.133 0.211,-0.258 0.316,-0.379 0.606,-0.711 1.196,-1.433 1.781,-2.152 0.063,-0.082 0.129,-0.164 0.192,-0.242 0.617,-0.762 1.215,-1.512 1.812,-2.285 0.008,-0.008 0.012,-0.016 0.016,-0.024 0.594,-0.769 1.18,-1.543 1.75,-2.324 0.07,-0.094 0.141,-0.191 0.211,-0.281 0.551,-0.758 1.094,-1.516 1.621,-2.278 0.07,-0.109 0.152,-0.222 0.23,-0.324 0.532,-0.777 1.055,-1.566 1.571,-2.351 0.031,-0.051 0.066,-0.102 0.097,-0.168 0.512,-0.782 1.008,-1.575 1.5,-2.368 0.032,-0.05 0.055,-0.093 0.086,-0.144 0.473,-0.785 0.93,-1.567 1.375,-2.352 0.075,-0.14 0.149,-0.269 0.231,-0.406 0.422,-0.762 0.828,-1.516 1.219,-2.277 0.086,-0.157 0.164,-0.317 0.246,-0.477 0.383,-0.762 0.761,-1.523 1.117,-2.301 0.058,-0.121 0.109,-0.238 0.168,-0.355 0.312,-0.688 0.617,-1.371 0.906,-2.055 0.074,-0.176 0.149,-0.355 0.223,-0.531 0.289,-0.711 0.566,-1.422 0.828,-2.141 0.094,-0.246 0.183,-0.496 0.269,-0.746 0.25,-0.683 0.477,-1.363 0.692,-2.054 0.086,-0.274 0.164,-0.551 0.246,-0.825 0.164,-0.562 0.324,-1.125 0.469,-1.687 0.097,-0.379 0.191,-0.754 0.273,-1.117 0.125,-0.508 0.231,-1.004 0.332,-1.504 0.039,-0.211 0.102,-0.422 0.141,-0.637 2.832,-4.164 4.219,-7.539 4.219,-7.539 -0.516,16.594 -12.325,34.301 -25.125,48.43 z m -46.211,80.726 c -8.7426,-6.66 -29.3403,-41.113 -4.461,-44.203 -19.6293,6.297 -0.516,37.406 7.804,43.742 9.332,7.055 19.668,26.688 19.668,26.688 -0.812,-0.91 -3.172,-2.172 -5.449,-3.278 -3.476,-6.035 -10.781,-17.793 -17.562,-22.949"
         style="fill:#231f20;fill-opacity:1;fill-rule:nonzero;stroke:none"
         id="path24"
         inkscape:connector-curvature="0" /><path
         d="m 276.93,661.113 c 0.394,-1.73 1.082,-2.914 1.082,-2.914 3.019,4.754 9.273,5.266 13.758,4.926 -3.235,0.59 -10.301,1.352 -14.84,-2.012"
         style="fill:#231f20;fill-opacity:1;fill-rule:nonzero;stroke:none"
         id="path26"
         inkscape:connector-curvature="0" /><path
         d="m 343.051,505.949 c -0.52,-0.039 -1.047,-0.117 -1.586,-0.215 -0.047,-0.004 -0.094,-0.011 -0.141,-0.023 -0.5,-0.094 -1,-0.203 -1.496,-0.336 -0.055,-0.008 -0.113,-0.023 -0.164,-0.039 -0.512,-0.133 -1.023,-0.285 -1.527,-0.445 -0.035,-0.008 -0.071,-0.024 -0.098,-0.028 -0.527,-0.172 -1.043,-0.355 -1.559,-0.554 -0.058,-0.02 -0.105,-0.039 -0.156,-0.055 -0.484,-0.184 -0.953,-0.371 -1.418,-0.57 -0.054,-0.032 -0.113,-0.051 -0.176,-0.079 -0.48,-0.203 -0.953,-0.421 -1.41,-0.632 -0.015,-0.008 -0.027,-0.02 -0.047,-0.028 -0.988,-0.461 -1.902,-0.929 -2.734,-1.382 -0.371,-0.883 -0.609,-1.805 -0.687,-2.762 0,0 9.113,6.16 16.621,6.82 12.59,1.145 20.054,0.125 35.332,-1.039 -17.75,1.891 -25.348,2.574 -38.754,1.367 z m 25.215,43.309 c -0.477,0.004 -0.942,-0.02 -1.387,-0.055 -0.078,-0.004 -0.149,-0.012 -0.219,-0.019 -0.445,-0.043 -0.887,-0.094 -1.297,-0.18 -0.273,-0.063 -0.558,-0.094 -0.832,-0.145 -7.574,-15.648 -2.168,-35.777 -2.168,-35.777 0.379,-0.078 0.746,-0.156 1.106,-0.238 10.504,-2.403 20.179,-7.594 21.84,-8.512 1,-0.074 2.019,-0.141 3.086,-0.211 0,0 -10.661,6.109 -22.629,8.637 0,0 -5.586,20.797 2.5,36.5 z m 74.89,85.777 16.27,-7.316 c -0.453,-1.082 -0.934,-2.164 -1.434,-3.25 -3.422,-7.528 -7.617,-15.09 -12.742,-21.942 -0.02,-0.023 -0.035,-0.05 -0.055,-0.078 L 447.871,601 c 6.262,8.133 11.203,17.379 15.039,26.383 l -15.726,7.039 -4.028,0.613 z m 28.051,31.781 c -0.363,-1.937 -0.93,-4.761 -1.738,-8.195 -0.031,-0.129 -0.063,-0.258 -0.094,-0.387 -0.121,-0.523 -0.25,-1.066 -0.391,-1.613 -0.082,-0.328 -0.156,-0.652 -0.246,-0.984 -0.066,-0.274 -0.136,-0.551 -0.215,-0.832 -0.097,-0.414 -0.214,-0.84 -0.324,-1.27 -0.051,-0.199 -0.105,-0.398 -0.16,-0.597 -0.16,-0.625 -0.336,-1.266 -0.519,-1.911 -0.051,-0.191 -0.102,-0.382 -0.157,-0.566 -0.175,-0.633 -0.359,-1.27 -0.547,-1.914 -0.019,-0.074 -0.043,-0.149 -0.062,-0.223 -0.219,-0.75 -0.441,-1.511 -0.684,-2.277 -0.031,-0.121 -0.066,-0.238 -0.101,-0.352 -0.492,-1.597 -1.024,-3.25 -1.59,-4.941 -0.016,-0.051 -0.031,-0.098 -0.047,-0.149 -0.894,-2.636 -1.875,-5.363 -2.961,-8.14 l 3.414,-0.508 c 7.805,19.918 10.348,37.492 10.348,37.492 -1.246,-0.929 -2.563,-1.797 -3.926,-2.633 z m -42.484,-56.941 12.457,-12.414 c -0.465,-0.531 -0.938,-1.066 -1.418,-1.594 -0.137,-0.14 -0.274,-0.281 -0.403,-0.426 -0.355,-0.371 -0.707,-0.746 -1.062,-1.117 -0.184,-0.183 -0.359,-0.363 -0.543,-0.551 -0.313,-0.312 -0.625,-0.625 -0.945,-0.937 -0.211,-0.211 -0.43,-0.418 -0.645,-0.617 -0.293,-0.281 -0.578,-0.551 -0.875,-0.824 -0.242,-0.219 -0.492,-0.438 -0.738,-0.665 -0.274,-0.246 -0.543,-0.484 -0.817,-0.714 -0.269,-0.239 -0.546,-0.469 -0.82,-0.7 -0.258,-0.211 -0.504,-0.418 -0.758,-0.625 -0.304,-0.242 -0.605,-0.488 -0.914,-0.726 -0.23,-0.184 -0.465,-0.36 -0.695,-0.539 -0.336,-0.242 -0.676,-0.5 -1.016,-0.75 -0.195,-0.149 -0.398,-0.281 -0.601,-0.434 -0.383,-0.262 -0.758,-0.527 -1.141,-0.789 -0.16,-0.105 -0.32,-0.211 -0.484,-0.312 -0.43,-0.282 -0.856,-0.567 -1.293,-0.84 -0.086,-0.055 -0.168,-0.102 -0.254,-0.153 -3.352,-2.054 -6.93,-3.777 -10.762,-5.089 -0.027,-0.004 -0.047,-0.016 -0.066,-0.024 l 0.668,-1.262 c 11.75,3.262 21.308,10.383 29.043,19.29 l -9.121,9.113 -6.797,3.699 z M 299.84,644.422 c 1.336,2.933 2.41,7.047 2.633,12.308 l -0.008,0 -0.059,5.231 c -0.015,0.195 -0.019,0.398 -0.035,0.605 l 0.031,0 -0.007,0.575 c 0,0 -1.309,2.777 -3.047,1.386 0,0 1.043,-0.609 1.129,-2.523 0.086,-1.918 -0.172,-5.473 -0.172,-5.473 -0.367,-4.312 -1.344,-8.379 -2.653,-11.914 0.543,-0.711 1.508,-1.492 2.067,-2.097 0.308,-0.313 1.535,-1.895 0.828,-4.036 -0.859,-2.074 -2.203,-5.089 -2.969,-5.914 -0.203,-0.25 -0.359,-0.55 -0.496,-0.867 0.543,-0.863 1.023,-1.867 1.051,-1.961 0.453,0.039 0.551,1.973 1.394,2.942 0.754,0.859 2.102,3.847 2.95,5.933 0.726,2.137 -0.504,3.727 -0.817,4.039 -0.469,0.5 -1.262,1.149 -1.82,1.766 z m -5.152,-12.192 c -0.09,0.114 -0.18,0.215 -0.258,0.301 -0.114,0.176 -0.383,0.34 -0.731,0.524 -0.941,-2.082 -2.289,-3.375 -3.101,-3.844 -0.145,-0.074 -0.301,-0.148 -0.473,-0.211 -0.102,-0.039 -0.215,-0.074 -0.324,-0.109 -0.063,-0.016 -0.125,-0.036 -0.188,-0.055 -0.152,-0.043 -0.308,-0.086 -0.465,-0.117 -0.027,-0.012 -0.046,-0.016 -0.07,-0.024 -0.176,-0.039 -0.359,-0.07 -0.535,-0.101 0.906,-0.071 2.867,0.156 3.992,0.742 0.625,0.375 1.563,1.238 2.395,2.566 -0.035,0.039 -0.071,0.094 -0.102,0.137 -0.047,0.063 -0.094,0.137 -0.14,0.191 z m 46.609,-3.402 c 0.215,-0.094 0.445,-0.191 0.68,-0.305 0.093,-0.046 0.191,-0.085 0.289,-0.136 0.203,-0.098 0.406,-0.192 0.625,-0.293 0.304,-0.153 0.609,-0.317 0.933,-0.489 0.149,-0.078 0.305,-0.167 0.453,-0.246 0.246,-0.144 0.504,-0.277 0.762,-0.433 0.149,-0.082 0.289,-0.164 0.438,-0.25 0.398,-0.242 0.816,-0.485 1.25,-0.758 0,0 0.086,-0.059 0.23,-0.156 l 0.004,0 c 0.078,-0.051 0.176,-0.114 0.281,-0.184 0,0 0.004,0 0.012,0 1.461,-0.922 5.879,-3.379 11.258,-3.363 -4.895,0.89 -8.36,3.394 -8.36,3.394 -5.316,3.286 -8.547,4.301 -10.254,3.746 0.434,-0.14 0.899,-0.312 1.395,-0.527 l 0.004,0 z m -11.406,41.86 c -0.336,0.05 -3.813,0.867 -5.493,1.277 -1.726,0.39 -3.785,1.41 -6.289,1.41 -2.113,0 -11.433,-4.875 -11.433,-4.875 0.437,-0.16 6.426,1.938 7.648,2.188 1.278,0.191 1.16,0.05 1.86,0 0.082,-1.317 1.168,-1.649 2.828,-1.668 1.676,0 2.801,1.066 3.109,1.492 1.961,-0.637 4.934,-0.68 6.336,-0.489 1.102,0.153 1.742,0.489 1.434,0.665 z m 70.593,-70.661 5.895,-23.113 c -0.52,-0.086 -1.043,-0.164 -1.578,-0.23 -0.047,-0.012 -0.094,-0.012 -0.141,-0.02 -0.48,-0.059 -0.961,-0.117 -1.445,-0.168 -0.16,-0.016 -0.328,-0.031 -0.492,-0.043 -0.364,-0.039 -0.735,-0.074 -1.102,-0.105 -0.301,-0.02 -0.605,-0.039 -0.91,-0.055 -0.231,-0.012 -0.461,-0.031 -0.691,-0.035 -0.438,-0.028 -0.883,-0.043 -1.321,-0.051 -0.097,-0.004 -0.199,-0.012 -0.297,-0.012 -1.629,-0.023 -3.289,0.012 -5.004,0.133 1.051,-0.137 2.079,-0.25 3.106,-0.324 4.699,-0.356 9.137,-0.145 13.316,0.523 l -2.929,11.493 -6.407,12.007 z M 347.906,548.43 c 1.004,-0.825 1.875,-1.602 2.641,-2.34 0.098,-0.09 0.199,-0.211 0.293,-0.309 0.492,-0.48 0.898,-0.929 1.293,-1.363 0.351,-0.387 0.695,-0.789 1.027,-1.211 0.086,-0.121 0.188,-0.234 0.274,-0.359 1.332,-1.782 2.402,-3.77 2.402,-5.614 l 0,6.543 c -1.324,1.536 -2.75,2.817 -3.645,3.575 l -4.285,1.078 z m -61.133,80.015 c -0.156,0.012 -0.293,0.024 -0.39,0.039 -0.098,0.016 -0.195,0.016 -0.293,0.004 -0.047,0 -0.09,-0.011 -0.137,-0.019 -0.058,0 -0.113,-0.012 -0.172,-0.028 -0.058,-0.015 -0.121,-0.031 -0.176,-0.046 -0.05,-0.016 -0.097,-0.032 -0.148,-0.051 -0.066,-0.024 -0.141,-0.047 -0.219,-0.078 l -0.004,-0.004 c -0.027,-0.317 -0.054,-0.586 -0.015,-0.739 0.726,0.278 1.453,0.696 2.094,0.934 -0.184,-0.012 -0.34,-0.012 -0.493,-0.012 -0.015,0 -0.031,0 -0.047,0 z m 5.747,18.106 c 0.144,-0.051 0.289,-0.094 0.425,-0.137 0.18,-0.051 0.356,-0.105 0.52,-0.144 0.058,-0.02 0.113,-0.036 0.168,-0.051 0.18,-0.051 0.359,-0.09 0.512,-0.121 0.074,0.203 0.132,0.406 0.203,0.609 -1.957,0.625 -4.516,1.539 -5.473,1.398 -0.297,-0.05 -0.559,-0.128 -0.801,-0.242 1.207,-0.238 2.93,-0.843 4.348,-1.289 0.031,-0.008 0.066,-0.019 0.098,-0.023"
         style="fill:#231f20;fill-opacity:1;fill-rule:nonzero;stroke:none"
         id="path28"
         inkscape:connector-curvature="0" /><path
         d="m 471.707,669.773 c -25.648,-19.097 -78.359,-18.191 -86.742,-20.414 -8.356,-2.179 -5.75,-8.05 -5.75,-8.05 -11.664,-30.414 -32.488,-15.391 -32.488,-15.391 -15.914,9.848 -13.086,-0.613 -6.809,-12.797 -24.883,3.09 -4.285,37.543 4.465,44.203 9.324,7.098 19.64,26.684 19.64,26.684 -3.003,-3.36 -11.964,-9.684 -36.257,-4.649 -10.758,2.2 -18.286,-4.515 -18.286,-4.515 -46.878,4.148 -34.906,-16.246 -34.906,-16.246 5.008,7.898 18.922,4.156 18.922,4.156 0.113,-2.883 1.481,-4.391 3.238,-5.219 -0.379,-3.297 -1.109,-7.383 -2.589,-11.437 -1.735,0.34 -5.926,2.07 -7.215,1.879 -3.68,-0.571 -3.258,-5.918 -7.262,-7.461 0.375,-0.93 2.215,-2.168 4.133,-2.532 -1.742,-1.98 -1.613,-5.3 -1.594,-5.695 0.082,-1.508 1.102,-1.91 1.141,-2.609 0.097,-0.961 -0.129,-1.918 -0.075,-2.297 1.129,0.422 2.29,1.23 3.11,1.101 0.746,-0.132 2.988,0.079 4.215,0.727 0.812,0.469 2.16,1.762 3.101,3.844 0.348,-0.184 0.617,-0.348 0.731,-0.524 0.742,-0.742 1.73,-2.773 1.781,-2.926 0.422,0.036 0.535,1.958 1.367,2.965 0.766,0.825 2.11,3.84 2.969,5.914 0.707,2.141 -0.52,3.723 -0.828,4.036 -0.559,0.605 -1.524,1.386 -2.067,2.097 1.309,3.535 2.286,7.602 2.653,11.914 l 0,0 c 0,0 0.258,3.555 0.172,5.473 -0.086,1.914 -1.129,2.523 -1.129,2.523 1.738,1.391 3.047,-1.386 3.047,-1.386 l 0.07,-6.411 c 2.375,0.215 4.289,0.825 4.289,0.825 0,0 15.059,1.504 17.359,-2.223 2.321,-3.75 1.352,-13.562 -11.98,-37.852 -14.57,-26.597 0.949,-52.25 22.57,-63.421 7.27,-5.34 22.43,-18.762 20.485,-36.817 0,0 -27.739,-5.625 -28.754,-18.129 0,0 9.113,6.192 16.617,6.836 14.312,1.285 22.004,0.418 42.512,-1.761 0,0 -11.235,6.41 -23.2,8.894 0,0 -5.406,20.129 2.168,35.777 0.274,0.051 0.559,0.082 0.832,0.145 9.184,1.898 25.239,-7.066 25.239,-7.066 l -3.657,9.566 c 16.985,-2.5 25.282,-22.469 25.282,-22.469 -0.528,16.84 -11.629,33.774 -24.653,47.985 1.867,-0.293 3.696,-0.54 5.481,-0.672 4.718,-0.36 9.133,-0.102 13.324,0.566 l -5.895,23.113 11.668,-21.855 c 11.75,3.266 21.286,10.391 29.028,19.289 l -12.457,12.414 15.668,-8.512 c 6.269,8.125 11.187,17.356 15.035,26.356 l -16.27,7.316 18.145,-2.758 c 7.824,19.911 10.406,37.496 10.406,37.496 z M 355.836,537.234 c 0,1.844 -1.07,3.832 -2.402,5.614 -0.086,0.125 -0.188,0.238 -0.274,0.359 -0.332,0.422 -0.676,0.824 -1.027,1.211 -0.395,0.434 -0.801,0.883 -1.293,1.363 -0.094,0.098 -0.195,0.219 -0.293,0.309 -0.766,0.738 -1.637,1.515 -2.641,2.34 l 7.93,-1.992 0,-9.204 z m -33.715,133.278 c -0.308,-0.426 -1.433,-1.492 -3.109,-1.492 -1.66,0.019 -2.746,0.351 -2.828,1.668 -0.7,0.05 -0.582,0.191 -1.86,0 -1.222,-0.25 -7.211,-2.348 -7.648,-2.188 0,0 9.32,4.875 11.433,4.875 2.504,0 4.563,-1.02 6.289,-1.41 1.68,-0.41 5.157,-1.227 5.493,-1.277 0.308,-0.176 -0.332,-0.512 -1.434,-0.665 -1.402,-0.191 -4.375,-0.148 -6.336,0.489"
         style="fill:#ffffff;fill-opacity:1;fill-rule:nonzero;stroke:none"
         id="path30"
         inkscape:connector-curvature="0" /><path
         d="m 386.945,551.504 3.235,-8.434 c 2.355,-1.109 3.879,-1.968 3.879,-1.968 l -3.469,9.539 c -1.172,0.371 -2.379,0.672 -3.645,0.863 z m 3.641,25.094 c -0.992,0.117 -1.996,0.257 -3.012,0.422 0.641,-0.704 1.281,-1.411 1.914,-2.122 0.098,-0.113 0.192,-0.218 0.289,-0.332 0.606,-0.691 1.2,-1.382 1.793,-2.074 0.11,-0.133 0.219,-0.258 0.328,-0.379 0.598,-0.711 1.192,-1.433 1.774,-2.152 0.066,-0.082 0.129,-0.164 0.199,-0.242 0.609,-0.762 1.215,-1.512 1.805,-2.285 0.012,-0.008 0.015,-0.016 0.019,-0.024 0.598,-0.769 1.176,-1.543 1.746,-2.324 0.075,-0.094 0.141,-0.191 0.215,-0.281 0.555,-0.758 1.098,-1.516 1.621,-2.278 0.075,-0.109 0.149,-0.222 0.227,-0.324 0.531,-0.777 1.059,-1.566 1.57,-2.351 0.031,-0.051 0.067,-0.102 0.106,-0.168 0.508,-0.782 1.008,-1.575 1.492,-2.368 0.031,-0.05 0.062,-0.093 0.09,-0.144 0.472,-0.785 0.926,-1.567 1.371,-2.352 0.078,-0.14 0.152,-0.269 0.226,-0.406 0.426,-0.762 0.832,-1.516 1.231,-2.277 0.078,-0.157 0.156,-0.317 0.246,-0.477 0.379,-0.762 0.754,-1.523 1.113,-2.301 0.063,-0.121 0.114,-0.238 0.168,-0.355 0.317,-0.688 0.61,-1.371 0.906,-2.055 0.071,-0.176 0.145,-0.355 0.223,-0.531 0.293,-0.711 0.57,-1.422 0.824,-2.141 0.094,-0.246 0.184,-0.496 0.278,-0.746 0.238,-0.683 0.472,-1.363 0.691,-2.054 0.074,-0.274 0.16,-0.551 0.238,-0.825 0.168,-0.562 0.325,-1.125 0.469,-1.687 0.102,-0.379 0.195,-0.754 0.281,-1.117 0.118,-0.508 0.227,-1.004 0.325,-1.504 0.046,-0.211 0.105,-0.422 0.14,-0.637 2.832,-4.164 4.219,-7.539 4.219,-7.539 -0.516,16.594 -12.324,34.301 -25.125,48.43 z m -46.203,80.726 c -8.75,-6.66 -29.348,-41.113 -4.465,-44.203 -19.633,6.297 -0.516,37.406 7.801,43.742 9.332,7.055 19.672,26.688 19.672,26.688 -0.817,-0.91 -3.176,-2.172 -5.453,-3.278 -3.477,-6.035 -10.774,-17.793 -17.555,-22.949"
         style="fill:#231f20;fill-opacity:1;fill-rule:nonzero;stroke:none"
         id="path32"
         inkscape:connector-curvature="0" /><path
         d="m 140.262,277.715 c 0.508,-2.172 1.371,-3.66 1.371,-3.66 3.789,5.972 11.644,6.605 17.277,6.187 -4.062,0.742 -12.93,1.699 -18.648,-2.527"
         style="fill:#231f20;fill-opacity:1;fill-rule:nonzero;stroke:none"
         id="path34"
         inkscape:connector-curvature="0" /><path
         d="m 223.32,82.8203 c -0.656,-0.0469 -1.324,-0.1484 -1.992,-0.2695 -0.058,-0.0078 -0.117,-0.0078 -0.176,-0.0313 -0.629,-0.125 -1.25,-0.25 -1.882,-0.4218 -0.067,-0.0079 -0.133,-0.0235 -0.207,-0.043 -0.637,-0.1719 -1.286,-0.3555 -1.915,-0.5703 -0.043,-0.0039 -0.085,-0.0196 -0.117,-0.0274 -0.668,-0.2187 -1.316,-0.4492 -1.961,-0.6914 -0.066,-0.0312 -0.132,-0.0508 -0.203,-0.0703 -0.597,-0.2265 -1.191,-0.4687 -1.773,-0.7187 -0.078,-0.0352 -0.145,-0.0664 -0.223,-0.0977 -0.605,-0.2617 -1.191,-0.5234 -1.769,-0.7969 -0.016,0 -0.043,-0.0117 -0.063,-0.0351 -1.238,-0.5781 -2.391,-1.1758 -3.437,-1.7344 -0.461,-1.1172 -0.766,-2.2656 -0.864,-3.4648 0,0 11.45,7.7304 20.879,8.5664 15.813,1.4297 25.192,0.1484 44.375,-1.3125 -22.289,2.3711 -31.836,3.2382 -48.672,1.7187 z m 31.672,54.3947 c -0.597,0.012 -1.176,-0.02 -1.75,-0.063 -0.086,-0.019 -0.183,-0.019 -0.269,-0.031 -0.563,-0.051 -1.106,-0.125 -1.629,-0.226 -0.348,-0.071 -0.699,-0.102 -1.043,-0.176 -9.512,-19.66 -2.723,-44.9377 -2.723,-44.9377 0.473,-0.0899 0.938,-0.2071 1.383,-0.3008 13.199,-3.0117 25.352,-9.5391 27.441,-10.6953 1.25,-0.0821 2.532,-0.1758 3.871,-0.2579 0,0 -13.39,7.6719 -28.421,10.8438 0,0 -7.02,26.1249 3.14,45.8439 z m 94.071,107.738 20.429,-9.199 c -0.574,-1.344 -1.179,-2.707 -1.797,-4.074 -4.3,-9.453 -9.574,-18.95 -16.004,-27.559 -0.027,-0.031 -0.043,-0.058 -0.074,-0.098 l 3.363,-1.808 c 7.868,10.207 14.075,21.824 18.899,33.14 l -19.766,8.825 -5.05,0.773 z m 35.23,39.918 c -0.461,-2.437 -1.172,-5.984 -2.184,-10.305 -0.043,-0.14 -0.082,-0.308 -0.117,-0.472 -0.16,-0.649 -0.32,-1.328 -0.492,-2.024 -0.105,-0.41 -0.199,-0.816 -0.316,-1.25 -0.082,-0.332 -0.172,-0.675 -0.258,-1.031 -0.133,-0.535 -0.274,-1.055 -0.41,-1.594 -0.071,-0.25 -0.133,-0.496 -0.207,-0.754 -0.204,-0.781 -0.418,-1.593 -0.649,-2.402 -0.066,-0.242 -0.137,-0.473 -0.191,-0.695 -0.231,-0.809 -0.457,-1.606 -0.696,-2.414 -0.027,-0.098 -0.05,-0.184 -0.078,-0.274 -0.273,-0.949 -0.554,-1.898 -0.855,-2.883 -0.043,-0.132 -0.09,-0.281 -0.137,-0.421 -0.609,-2.016 -1.273,-4.09 -1.988,-6.207 -0.016,-0.067 -0.035,-0.137 -0.063,-0.2 -1.117,-3.304 -2.351,-6.722 -3.718,-10.211 l 4.293,-0.652 c 9.804,25.027 12.992,47.106 12.992,47.106 -1.574,-1.176 -3.219,-2.266 -4.926,-3.317 z m -53.363,-71.519 15.652,-15.59 c -0.59,-0.668 -1.191,-1.34 -1.793,-1.996 -0.16,-0.176 -0.34,-0.364 -0.508,-0.543 -0.437,-0.469 -0.879,-0.942 -1.328,-1.407 -0.226,-0.23 -0.457,-0.453 -0.683,-0.687 -0.387,-0.391 -0.782,-0.781 -1.188,-1.184 -0.266,-0.254 -0.535,-0.511 -0.809,-0.773 -0.375,-0.34 -0.73,-0.692 -1.093,-1.031 -0.313,-0.274 -0.621,-0.555 -0.93,-0.832 -0.34,-0.297 -0.68,-0.606 -1.023,-0.903 -0.34,-0.304 -0.696,-0.582 -1.039,-0.879 -0.317,-0.269 -0.625,-0.515 -0.95,-0.785 -0.383,-0.301 -0.758,-0.601 -1.148,-0.902 -0.289,-0.238 -0.586,-0.449 -0.875,-0.684 -0.422,-0.308 -0.844,-0.636 -1.27,-0.933 -0.254,-0.188 -0.504,-0.368 -0.757,-0.547 -0.473,-0.328 -0.95,-0.668 -1.438,-1 -0.195,-0.133 -0.395,-0.262 -0.598,-0.387 -0.543,-0.359 -1.082,-0.711 -1.636,-1.055 -0.106,-0.062 -0.203,-0.125 -0.313,-0.183 -4.215,-2.598 -8.707,-4.754 -13.519,-6.406 -0.032,0 -0.059,-0.02 -0.082,-0.032 l 0.832,-1.574 c 14.761,4.094 26.769,13.039 36.484,24.219 l -11.445,11.457 -8.543,4.637 z m -161.883,43.382 c 1.672,3.7 3.027,8.856 3.301,15.465 0,0 0,0 -0.008,0 l -0.07,6.571 c -0.016,0.257 -0.028,0.5 -0.047,0.773 l 0.043,0 -0.008,0.719 c 0,0 -1.645,3.484 -3.828,1.742 0,0 1.312,-0.774 1.422,-3.172 0.113,-2.41 -0.219,-6.879 -0.219,-6.879 -0.461,-5.418 -1.68,-10.523 -3.332,-14.961 0.679,-0.887 1.894,-1.871 2.597,-2.633 0.383,-0.394 1.93,-2.382 1.036,-5.066 -1.079,-2.598 -2.766,-6.391 -3.723,-7.438 -0.262,-0.308 -0.457,-0.691 -0.629,-1.093 0.688,-1.071 1.289,-2.336 1.32,-2.453 0.575,0.054 0.696,2.472 1.75,3.699 0.953,1.062 2.645,4.836 3.703,7.445 0.915,2.692 -0.625,4.676 -1.015,5.082 -0.594,0.629 -1.594,1.434 -2.293,2.199 z m -6.469,-15.3 c -0.113,0.14 -0.223,0.269 -0.328,0.379 -0.141,0.226 -0.484,0.433 -0.918,0.656 -1.191,-2.614 -2.871,-4.231 -3.894,-4.824 -0.176,-0.106 -0.379,-0.18 -0.59,-0.27 -0.133,-0.051 -0.274,-0.094 -0.407,-0.129 -0.086,-0.031 -0.16,-0.051 -0.242,-0.082 -0.187,-0.062 -0.386,-0.098 -0.578,-0.148 -0.035,0 -0.062,-0.012 -0.09,-0.012 -0.222,-0.063 -0.449,-0.109 -0.676,-0.141 1.141,-0.086 3.606,0.203 5.02,0.934 0.785,0.469 1.957,1.558 3.008,3.219 -0.047,0.066 -0.09,0.117 -0.129,0.179 -0.059,0.082 -0.117,0.176 -0.176,0.239 z m 58.539,-4.27 c 0.274,-0.129 0.559,-0.254 0.856,-0.387 0.117,-0.05 0.238,-0.101 0.359,-0.164 0.258,-0.117 0.508,-0.242 0.785,-0.383 0.383,-0.183 0.77,-0.39 1.176,-0.601 0.184,-0.109 0.383,-0.211 0.574,-0.324 0.305,-0.164 0.625,-0.344 0.953,-0.543 0.184,-0.094 0.356,-0.199 0.543,-0.301 0.508,-0.309 1.035,-0.617 1.578,-0.941 0,0 0.106,-0.094 0.289,-0.211 0.004,0 0.004,0 0.004,0 0.102,-0.075 0.211,-0.133 0.356,-0.227 l 0.008,0 c 1.84,-1.16 7.382,-4.246 14.148,-4.227 -6.148,1.118 -10.504,4.266 -10.504,4.266 -6.676,4.125 -10.738,5.399 -12.883,4.695 0.551,-0.171 1.129,-0.39 1.754,-0.652 l 0.004,0 z m -14.32,52.578 c -0.426,0.063 -4.789,1.086 -6.902,1.586 -2.165,0.496 -4.75,1.785 -7.895,1.785 -2.656,0 -14.359,-6.129 -14.359,-6.129 0.547,-0.199 8.062,2.438 9.601,2.758 1.602,0.219 1.453,0.063 2.332,0 0.11,-1.652 1.473,-2.074 3.555,-2.097 2.109,0 3.519,1.328 3.91,1.867 2.465,-0.793 6.184,-0.848 7.949,-0.606 1.391,0.192 2.188,0.606 1.809,0.836 z m 88.656,-88.758 7.41,-29.031 c -0.648,-0.105 -1.312,-0.211 -1.976,-0.285 -0.063,-0.02 -0.125,-0.02 -0.188,-0.031 -0.597,-0.067 -1.199,-0.153 -1.816,-0.211 -0.192,-0.02 -0.406,-0.031 -0.61,-0.055 -0.46,-0.043 -0.925,-0.094 -1.382,-0.125 -0.375,-0.035 -0.77,-0.047 -1.149,-0.066 -0.293,-0.02 -0.574,-0.047 -0.867,-0.059 -0.555,-0.023 -1.105,-0.043 -1.66,-0.055 -0.121,0 -0.246,-0.011 -0.375,-0.011 -2.043,-0.032 -4.129,0.011 -6.274,0.156 1.313,-0.164 2.61,-0.305 3.887,-0.398 5.91,-0.446 11.485,-0.184 16.727,0.66 l -3.676,14.437 -8.051,15.074 z M 229.418,136.18 c 1.258,-1.032 2.355,-2.012 3.324,-2.95 0.121,-0.105 0.242,-0.246 0.367,-0.375 0.61,-0.593 1.129,-1.16 1.621,-1.714 0.442,-0.493 0.875,-0.989 1.29,-1.528 0.109,-0.14 0.234,-0.297 0.339,-0.445 1.676,-2.234 3.02,-4.73 3.02,-7.051 l 0,8.219 c -1.672,1.926 -3.457,3.531 -4.574,4.488 l -5.387,1.356 z m -76.781,100.504 c -0.196,0 -0.371,0.027 -0.496,0.043 -0.11,0.019 -0.243,0.019 -0.368,0.015 -0.058,0 -0.109,-0.015 -0.164,-0.027 -0.078,-0.004 -0.148,-0.031 -0.226,-0.039 -0.07,-0.024 -0.141,-0.031 -0.215,-0.063 -0.063,-0.019 -0.117,-0.031 -0.184,-0.05 -0.086,-0.036 -0.175,-0.067 -0.273,-0.114 0,0 0,0 -0.012,0 -0.031,-0.402 -0.062,-0.73 -0.019,-0.937 0.918,0.359 1.832,0.89 2.629,1.183 -0.223,-0.011 -0.422,-0.011 -0.614,-0.011 -0.023,0 -0.047,0 -0.058,0 z m 7.218,22.726 c 0.184,-0.051 0.36,-0.113 0.528,-0.164 0.234,-0.062 0.449,-0.125 0.656,-0.176 0.074,-0.031 0.149,-0.05 0.215,-0.066 0.23,-0.063 0.449,-0.113 0.637,-0.16 0.093,0.269 0.172,0.527 0.261,0.773 -2.464,0.785 -5.668,1.938 -6.875,1.762 -0.371,-0.066 -0.699,-0.172 -1.007,-0.301 1.519,-0.308 3.691,-1.066 5.46,-1.625 0.036,-0.012 0.083,-0.027 0.125,-0.043"
         style="fill:#231f20;fill-opacity:1;fill-rule:nonzero;stroke:none"
         id="path36"
         inkscape:connector-curvature="0" /><path
         d="m 384.918,288.594 c -32.215,-24.004 -98.43,-22.844 -108.953,-25.641 -10.492,-2.738 -7.219,-10.113 -7.219,-10.113 -14.644,-38.207 -40.805,-19.32 -40.805,-19.32 -19.992,12.351 -16.441,-0.79 -8.55,-16.09 -31.254,3.883 -5.387,47.16 5.601,55.519 11.715,8.918 24.664,33.52 24.664,33.52 -3.761,-4.223 -15.023,-12.156 -45.535,-5.84 -13.508,2.762 -22.965,-5.676 -22.965,-5.676 -58.879,5.207 -43.84,-20.394 -43.84,-20.394 6.282,9.91 23.77,5.218 23.77,5.218 0.137,-3.629 1.855,-5.519 4.059,-6.558 -0.477,-4.141 -1.391,-9.278 -3.254,-14.375 -2.172,0.441 -7.438,2.605 -9.063,2.363 -4.617,-0.711 -4.09,-7.434 -9.117,-9.363 0.473,-1.172 2.777,-2.731 5.191,-3.184 -2.183,-2.484 -2.031,-6.652 -2.004,-7.156 0.098,-1.895 1.383,-2.399 1.434,-3.266 0.129,-1.215 -0.16,-2.41 -0.086,-2.883 1.414,0.516 2.863,1.536 3.895,1.372 0.937,-0.164 3.757,0.101 5.297,0.918 1.023,0.593 2.703,2.21 3.894,4.824 0.434,-0.223 0.777,-0.43 0.918,-0.656 0.93,-0.938 2.18,-3.481 2.238,-3.665 0.528,0.04 0.68,2.45 1.723,3.707 0.957,1.047 2.644,4.84 3.723,7.438 0.894,2.684 -0.653,4.672 -1.036,5.066 -0.703,0.762 -1.918,1.746 -2.597,2.633 1.652,4.438 2.871,9.543 3.332,14.961 l 0,0 c 0,0 0.332,4.469 0.219,6.879 -0.11,2.398 -1.422,3.172 -1.422,3.172 2.183,1.742 3.828,-1.742 3.828,-1.742 l 0.082,-8.063 c 2.988,0.274 5.398,1.039 5.398,1.039 0,0 18.91,1.887 21.793,-2.777 2.922,-4.711 1.699,-17.043 -15.043,-47.559 -18.297,-33.398 1.196,-65.617 28.352,-79.648 9.125,-6.715 28.168,-23.566 25.73,-46.2501 0,0 -34.847,-7.0586 -36.117,-22.7734 0,0 11.438,7.7695 20.867,8.5898 17.981,1.6094 27.637,0.5313 53.399,-2.2109 0,0 -14.11,8.0547 -29.141,11.1719 0,0 -6.789,25.2777 2.723,44.9377 0.344,0.074 0.695,0.105 1.043,0.176 11.539,2.382 31.703,-8.868 31.703,-8.868 l -4.594,12.008 c 21.332,-3.14 31.758,-28.219 31.758,-28.219 -0.672,21.157 -14.606,42.426 -30.965,60.274 2.344,-0.367 4.641,-0.684 6.879,-0.844 5.926,-0.453 11.477,-0.129 16.738,0.707 l -7.41,29.031 14.66,-27.453 c 14.758,4.11 26.742,13.059 36.469,24.231 l -15.652,15.59 19.675,-10.688 c 7.879,10.203 14.059,21.793 18.887,33.09 l -20.429,9.199 22.781,-3.461 c 9.828,25.008 13.074,47.102 13.074,47.102 z M 239.379,122.117 c 0,2.321 -1.344,4.817 -3.02,7.051 -0.105,0.148 -0.23,0.305 -0.339,0.445 -0.415,0.539 -0.848,1.035 -1.29,1.528 -0.492,0.554 -1.011,1.121 -1.621,1.714 -0.125,0.129 -0.246,0.27 -0.367,0.375 -0.969,0.938 -2.066,1.918 -3.324,2.95 l 9.961,-2.512 0,-11.551 z m -42.34,167.395 c -0.391,-0.539 -1.801,-1.867 -3.91,-1.867 -2.082,0.023 -3.445,0.445 -3.555,2.097 -0.879,0.063 -0.73,0.219 -2.332,0 -1.539,-0.32 -9.054,-2.957 -9.601,-2.758 0,0 11.703,6.129 14.359,6.129 3.145,0 5.73,-1.289 7.895,-1.785 2.113,-0.5 6.476,-1.523 6.902,-1.586 0.379,-0.23 -0.418,-0.644 -1.809,-0.836 -1.765,-0.242 -5.484,-0.187 -7.949,0.606"
         style="fill:#ffffff;fill-opacity:1;fill-rule:nonzero;stroke:none"
         id="path38"
         inkscape:connector-curvature="0" /><path
         d="m 278.453,140.035 4.067,-10.586 c 2.953,-1.398 4.867,-2.48 4.867,-2.48 l -4.356,11.984 c -1.472,0.465 -2.988,0.848 -4.578,1.082 z m 4.57,31.52 c -1.246,0.144 -2.496,0.324 -3.777,0.535 0.809,-0.891 1.606,-1.774 2.406,-2.676 0.114,-0.133 0.235,-0.269 0.36,-0.402 0.758,-0.871 1.511,-1.735 2.261,-2.614 0.125,-0.156 0.258,-0.32 0.403,-0.48 0.758,-0.887 1.496,-1.785 2.234,-2.691 0.078,-0.114 0.16,-0.207 0.238,-0.305 0.766,-0.961 1.532,-1.906 2.274,-2.867 0.008,-0.012 0.012,-0.032 0.023,-0.043 0.746,-0.957 1.473,-1.934 2.196,-2.914 0.086,-0.114 0.175,-0.243 0.261,-0.36 0.696,-0.945 1.375,-1.894 2.043,-2.855 0.09,-0.141 0.184,-0.274 0.278,-0.41 0.672,-0.977 1.332,-1.95 1.976,-2.95 0.035,-0.054 0.086,-0.117 0.125,-0.199 0.649,-0.984 1.27,-1.976 1.887,-2.988 0.031,-0.051 0.07,-0.113 0.109,-0.18 0.594,-0.984 1.168,-1.972 1.723,-2.957 0.094,-0.164 0.187,-0.332 0.285,-0.508 0.535,-0.957 1.047,-1.898 1.539,-2.863 0.106,-0.183 0.207,-0.394 0.313,-0.598 0.48,-0.953 0.953,-1.914 1.41,-2.882 0.066,-0.153 0.129,-0.301 0.195,-0.453 0.399,-0.852 0.774,-1.715 1.141,-2.579 0.097,-0.222 0.191,-0.449 0.277,-0.675 0.367,-0.883 0.719,-1.782 1.047,-2.68 0.113,-0.313 0.223,-0.613 0.344,-0.945 0.297,-0.86 0.586,-1.715 0.859,-2.575 0.11,-0.347 0.203,-0.683 0.313,-1.027 0.203,-0.711 0.406,-1.41 0.586,-2.121 0.121,-0.48 0.242,-0.938 0.351,-1.41 0.149,-0.637 0.281,-1.266 0.406,-1.887 0.059,-0.266 0.133,-0.535 0.184,-0.793 3.551,-5.23 5.293,-9.484 5.293,-9.484 -0.648,20.851 -15.477,43.094 -31.563,60.836 z m -58.031,101.394 c -10.988,-8.359 -36.855,-51.636 -5.601,-55.519 -24.661,7.918 -0.653,46.984 9.797,54.945 11.722,8.855 24.703,33.523 24.703,33.523 -1.028,-1.156 -3.981,-2.73 -6.844,-4.121 -4.367,-7.578 -13.539,-22.347 -22.055,-28.828"
         style="fill:#231f20;fill-opacity:1;fill-rule:nonzero;stroke:none"
         id="path40"
         inkscape:connector-curvature="0" /><g
         id="g42"><g
           id="g44"
           clip-path="url(#clipPath46)"><path
             d="m 183.371,377.262 c -0.621,0.093 -1.254,0.203 -1.875,0.273 -0.926,0.133 -1.867,0.25 -2.816,0.356 -27.11,2.543 -51.246,-6.129 -63.801,-11.875 l -4.152,-10.149 c 0,0 76.277,49.922 134.503,-14.023 0,0 -21.378,28.894 -61.859,35.418"
             style="fill:url(#linearGradient50);fill-opacity:1;fill-rule:nonzero;stroke:none"
             id="path58"
             inkscape:connector-curvature="0" /></g></g><g
         id="g60"><g
           id="g62"
           clip-path="url(#clipPath64)"><path
             d="m 379.5,364.379 c -12.926,5.609 -39.582,15.273 -68.98,11.246 39.371,2.289 72.148,-19.504 72.148,-19.504 l -3.168,8.258"
             style="fill:url(#linearGradient68);fill-opacity:1;fill-rule:nonzero;stroke:none"
             id="path76"
             inkscape:connector-curvature="0" /></g></g><g
         id="g78"><g
           id="g80"
           clip-path="url(#clipPath82)"><path
             d="m 109.871,370.598 -4.148,-9.239 c 0,0 45.398,26.532 92.25,12.918 -37.262,12.321 -73.953,1.825 -88.102,-3.679"
             style="fill:url(#linearGradient86);fill-opacity:1;fill-rule:nonzero;stroke:none"
             id="path94"
             inkscape:connector-curvature="0" /></g></g><g
         id="g96"><g
           id="g98"
           clip-path="url(#clipPath100)"><path
             d="m 283.16,368.629 c 51.953,21.523 104.68,-8.254 104.68,-8.254 l -3.442,8.23 c -14.507,5.872 -57.785,19.86 -101.238,0.024"
             style="fill:url(#linearGradient104);fill-opacity:1;fill-rule:nonzero;stroke:none"
             id="path112"
             inkscape:connector-curvature="0" /></g></g><path
         d="m 245.27,342.195 c -48.59,53.36 -109.743,27.196 -128.665,17.071 l -1.941,-4.946 3.438,-2.289 c 0,0 64.476,45.715 119.601,-10.851 8.348,-8.571 9.258,-6.36 15.945,0 62.661,59.793 117.364,11.41 119.399,11.863 2.074,0.457 5.152,2.266 5.152,2.266 l -1.582,4.386 c -19.121,10.457 -80.219,37.192 -129.738,-15.269 l -1.609,-2.231"
         style="fill:#9d6907;fill-opacity:1;fill-rule:nonzero;stroke:none"
         id="path114"
         inkscape:connector-curvature="0" /><g
         id="g116"><g
           id="g118"
           clip-path="url(#clipPath120)"><path
             d="m 103.582,366.48 c 0,0 81.004,40.653 141.828,-25.3 l 3.262,119.304 c 0,0 -57.707,42.317 -108.195,-2.351 L 103.582,366.48"
             style="fill:url(#linearGradient124);fill-opacity:1;fill-rule:nonzero;stroke:none"
             id="path132"
             inkscape:connector-curvature="0" /></g></g><g
         id="g134"><g
           id="g136"
           clip-path="url(#clipPath138)"><path
             d="m 389.531,366.363 c 0,0 -81.668,40.985 -144.121,-25.183 l 3.262,119.304 c 0,0 62.156,44.286 105.859,-1.871 l 35,-92.25"
             style="fill:url(#linearGradient142);fill-opacity:1;fill-rule:nonzero;stroke:none"
             id="path150"
             inkscape:connector-curvature="0" /></g></g><path
         d="m 155.227,432.73 1.804,0.336 c 2.024,0.403 3.102,1.793 4.254,5.508 l 1.473,0.203 c -0.418,-2.039 -0.809,-4.082 -1.168,-6.129 -0.305,-1.984 -0.563,-3.902 -0.879,-5.898 l -1.492,-0.187 c 0.261,2.824 -0.211,4.894 -2.821,4.449 l -1.593,-0.246 -2.614,-8.094 c -0.878,-3.348 0.114,-3.418 4.161,-2.594 l -0.379,-1.734 c -2.618,-0.563 -5.676,-1.188 -8.84,-1.824 -2.731,-0.543 -4.313,-0.973 -8.684,-1.657 l 0.664,1.508 c 4.418,0.895 4.793,2.371 5.899,5.754 l 4.683,14.313 c 1.246,4.039 1.075,5.628 -2.398,5.421 l 0.445,1.434 c 2.817,0.172 6.672,0.645 10.289,1.34 4.481,0.855 8.641,1.996 13.024,3.332 l -0.676,-7.543 -2.066,-0.399 c 0.035,5.219 -1.754,4.329 -6.723,3.27 -3.254,-0.672 -3.887,-0.852 -4.727,-4.422 l -1.636,-6.141"
         style="fill:#231f20;fill-opacity:1;fill-rule:nonzero;stroke:none"
         id="path152"
         inkscape:connector-curvature="0" /><path
         d="m 177.785,440.84 c 0.715,3.59 1.184,5.008 -2.422,4.594 l 0.418,1.851 c 2.071,0.356 3.77,0.442 6.258,0.742 2.606,0.356 4.281,0.711 6.859,0.918 l -0.222,-1.851 c -3.531,-0.434 -4.446,-1.739 -4.946,-5.121 l -3.593,-14.289 c -0.797,-4.621 -1.067,-5.746 2.703,-5.77 l -0.285,-1.836 c -2.289,0 -4.602,0 -7.192,-0.031 -2.187,0 -5.5,-0.418 -7.699,-0.625 l 0.578,1.773 c 3.922,0.442 4.528,1.973 5.563,6.149 l 3.98,13.496"
         style="fill:#231f20;fill-opacity:1;fill-rule:nonzero;stroke:none"
         id="path154"
         inkscape:connector-curvature="0" /><path
         d="m 199.613,431.051 c 2.032,-0.199 3.848,-0.5 3.848,-0.5 l -2.148,10.871 -4.883,-10.152 c 0,0 1.468,-0.067 3.183,-0.219 z m -4.871,-3.707 c -0.527,-1.18 -0.871,-1.762 -1.644,-3.465 -1.063,-2.32 1.433,-2.641 2.843,-2.91 l -0.265,-1.789 c -1.602,0.179 -3.211,0.414 -4.817,0.543 -1.484,0.093 -2.953,0.117 -4.457,0.179 l 0.282,1.825 c 3.312,-0.016 5.004,3.953 6.367,6.953 4.066,8.761 9.367,20.508 9.367,20.508 l 3.184,-0.372 c 0,0 3.836,-18.867 4.441,-23.007 0.512,-3.571 0.723,-4.196 1.094,-5.907 0.242,-1.086 1.73,-2.336 2.621,-2.683 l -0.289,-1.828 c -2.34,0.718 -3.68,1.175 -6.11,1.746 -1.918,0.414 -4.164,0.847 -6.613,1.152 l 0.301,1.852 c 1.445,-0.207 3.719,-0.094 3.574,2.058 -0.039,0.778 -0.297,3.004 -0.41,3.727 l -0.398,1.851 c 0,0 -2.141,0.485 -4.415,0.739 -2.218,0.285 -3.964,0.3 -3.964,0.3 l -0.692,-1.472"
         style="fill:#231f20;fill-opacity:1;fill-rule:nonzero;stroke:none"
         id="path156"
         inkscape:connector-curvature="0" /><path
         d="m 234.539,428.723 -1.598,0.629 c 0.082,4.117 0.172,7.722 -2.218,8.941 -2.278,1.113 -2.731,-0.102 -3.075,-3.859 l -1.625,-15.618 c -0.46,-4.25 -0.058,-6.003 3,-7.812 l -0.214,-1.867 c -2.434,1.273 -4.551,2.254 -6.457,3.043 -2.075,0.836 -4.278,1.508 -6.704,2.386 l 0.348,1.739 c 3.738,-1.024 3.922,0.226 4.356,4.453 l 1.781,15.558 c 0.347,3.407 0.863,5.051 -1.703,5.957 -3.075,1.118 -3.414,-1.98 -4.391,-5.898 l -1.641,0.555 1.184,9.179 c 0,0 5.906,-1.285 10.773,-3.367 5.079,-2.133 8.942,-4.969 8.942,-4.969 l -0.758,-9.05"
         style="fill:#231f20;fill-opacity:1;fill-rule:nonzero;stroke:none"
         id="path158"
         inkscape:connector-curvature="0" /><path
         d="m 270.891,409.367 c 3.382,2.024 3.343,3.594 3.113,7.524 l -0.887,15.933 c -0.199,3.973 0.078,6.067 -3.765,4.617 l -0.114,1.883 c 2.391,1.199 3.801,1.832 5.578,2.512 2.383,0.906 4.899,1.703 7.539,2.348 l 0.11,-2.024 c -3.555,-1.117 -3.215,-3.16 -3.012,-7.121 l 0.777,-12.957 c 0.231,-4.863 0.77,-7.535 5.149,-6.078 5.559,1.789 7.723,4.043 8.453,9.902 l 1.598,0.227 0.187,-9.789 c -7.562,-1.625 -15.621,-4.617 -17.847,-5.485 -2.063,-0.945 -4.629,-2.121 -6.79,-3.308 l -0.089,1.816"
         style="fill:#231f20;fill-opacity:1;fill-rule:nonzero;stroke:none"
         id="path160"
         inkscape:connector-curvature="0" /><path
         d="m 292.902,445.109 c 3.18,0.282 5.332,0.266 7.282,0.34 2.277,0.133 4.402,0.114 7.261,0.094 l 0.16,-1.719 c -3.511,-0.054 -3.503,-2.437 -3.113,-6.375 l 0.805,-7.609 c 0.598,-6.145 2.707,-9.762 8.191,-9.512 5.887,0.231 5.735,3.328 5.114,9.152 l -0.84,6.543 c -0.199,1.731 -0.516,3.942 -1.395,5.399 -0.758,1.32 -1.769,1.926 -3.105,2.105 l -0.192,1.715 c 1.688,-0.113 3.114,-0.379 4.68,-0.586 1.473,-0.211 2.363,-0.168 4.211,-0.359 l 0.184,-1.719 c -1.161,-0.023 -2.153,-0.699 -2.543,-2.156 -0.5,-1.719 -0.043,-3.606 0.14,-5.477 l 0.578,-4.312 c 1.008,-8.719 1.871,-13.102 -8.234,-13.496 -6.516,-0.27 -13.148,2.304 -14.078,12.316 l -0.867,7.945 c -0.407,3.989 -0.407,6.032 -4.114,5.993 l -0.125,1.718"
         style="fill:#231f20;fill-opacity:1;fill-rule:nonzero;stroke:none"
         id="path162"
         inkscape:connector-curvature="0" /><path
         d="m 349.023,416.605 c 1.473,-1.925 2.704,-3.492 4.575,-3.812 l 0.261,-1.672 c -2.804,0.438 -4.129,0.777 -6.687,1.149 -2.024,0.347 -4.414,0.593 -6.664,1.027 l -0.195,1.676 c 0.324,-0.051 1.902,-0.11 2.242,0.086 0.359,0.168 0.601,0.527 0.57,1.113 -0.047,0.887 -1.523,2.945 -2.059,3.73 l -3.804,5.778 -2.008,-3.094 c -0.688,-1.012 -1.801,-2.926 -1.68,-4.297 0.145,-1.812 1.539,-2.18 2.871,-2.48 l 0.137,-1.735 c -2.066,0.395 -3.387,0.699 -5.074,1.035 -1.52,0.207 -2.945,0.496 -4.418,0.7 l -0.106,1.781 c 2.067,-0.266 3.352,1.476 4.461,3.226 l 4.571,6.985 -5.336,8.043 c -0.539,1.16 -1.293,2.097 -1.985,3.062 -0.945,1.344 -1.711,1.438 -2.644,2.043 l -0.078,1.758 c 1.843,-0.547 3.879,-1.035 5.98,-1.469 2.047,-0.363 4.043,-0.593 5.879,-0.816 l 0.176,-1.906 c -1.028,0.074 -2.445,0.355 -2.324,-1.094 0.101,-0.984 0.261,-1.383 0.988,-2.477 l 2.414,-3.613 1.73,2.418 c 0.637,0.832 1.024,1.395 1.551,2.289 0.758,1.152 -1.054,2.117 -2.703,2.344 l -0.141,1.836 c 1.543,-0.254 2.766,-0.375 4.098,-0.481 1.418,-0.074 2.289,-0.015 3.606,0 l 0.601,-1.797 c -1.988,0 -2.777,-1.293 -4.066,-3.289 l -3.485,-5.172 8.746,-12.875"
         style="fill:#231f20;fill-opacity:1;fill-rule:nonzero;stroke:none"
         id="path164"
         inkscape:connector-curvature="0" /><path
         d="m 862.371,161.301 c -5.422,0 -19.598,-42.942 -115.918,-42.942 -35.015,0 -31.683,10.004 -31.683,34.602 l 0,202.644 c 0,36.274 30.449,25.844 30.449,35.442 0,5.004 -2.516,5.828 -7.938,5.828 -6.25,0 -16.254,-1.664 -40.023,-1.664 -20.43,0 -33.36,1.664 -42.113,1.664 -5.422,0 -8.344,-0.824 -8.344,-5.418 0,-8.332 35.027,-5.418 35.027,-27.098 l 0,-211.398 c 0,-19.594 -0.836,-31.27 -11.668,-36.27 -13.351,-6.671 -17.508,-5.836 -18.344,-10.851 0,-3.328 2.497,-4.149 6.254,-4.149 16.664,0 34.184,1.247 50.86,1.657 31.695,0.84 63.383,-1.657 95.07,-1.657 18.344,0 27.516,-0.847 40.859,14.161 10.008,10.839 20.844,25.433 20.844,40.453 0,0.832 -0.41,4.996 -3.332,4.996"
         style="fill:#222c77;fill-opacity:1;fill-rule:nonzero;stroke:none"
         id="path166"
         inkscape:connector-curvature="0" /><path
         d="m 946.242,137.121 0,223.899 c 0,31.277 30.02,21.683 30.02,31.695 0,3.336 -1.25,4.172 -7.914,4.172 -12.926,0 -25.86,-1.676 -38.785,-1.676 -15.418,0 -30.442,1.676 -45.864,1.676 -3.328,0 -4.168,-0.836 -4.168,-4.59 0,-9.176 33.356,-0.836 33.774,-31.277 l 0,-213.477 c 0,-41.281 -32.52,-27.52 -32.52,-39.613 0,-4.172 1.254,-6.25 8.758,-6.25 5.832,0 14.594,1.668 40.02,1.668 17.929,0 35.863,-1.668 45.449,-1.668 7.086,0 8.343,1.258 8.343,4.168 0,12.504 -37.113,2.922 -37.113,31.273"
         style="fill:#222c77;fill-opacity:1;fill-rule:nonzero;stroke:none"
         id="path168"
         inkscape:connector-curvature="0" /><path
         d="m 1279.78,396.887 c -5.84,0 -12.1,-1.676 -32.11,-1.676 -9.18,0 -18.35,1.676 -27.53,1.676 -4.16,0 -6.25,-1.254 -6.25,-5.426 0,-9.59 26.69,-1.664 26.69,-20.848 1.67,-8.758 -3.33,-22.101 -5.84,-28.351 l -72.55,-178.875 c -2.09,-5 -3.33,-11.672 -7.5,-11.672 -4.58,0 -7.5,9.586 -16.68,31.687 l -72.97,171.789 c -1.66,3.743 -3.75,10.414 -3.75,16.254 0,15.016 17.52,15.426 17.1,21.266 0,2.5 -3.34,4.176 -5.84,4.176 -5.83,0 -21.69,-1.676 -32.95,-1.676 -12.5,0 -25.43,1.676 -38.35,1.676 -3.758,0 -5.832,-2.09 -5.832,-5.84 0,-9.176 21.682,-1.25 32.092,-26.277 l 103,-243.497 c 3.75,-8.75 8.75,-26.2652 15.42,-26.2652 6.26,0 9.18,13.7622 13.77,24.1872 l 103.81,245.575 c 11.68,27.941 23.35,17.519 23.35,26.691 0,3.75 -2.5,5.426 -7.08,5.426"
         style="fill:#222c77;fill-opacity:1;fill-rule:nonzero;stroke:none"
         id="path170"
         inkscape:connector-curvature="0" /><path
         d="m 1521.32,161.301 c -5.43,0 -19.6,-42.949 -115.92,-42.949 -35.03,0 -31.69,10.011 -31.69,34.609 l 0,76.723 c 0,6.25 -1.25,13.339 7.52,13.339 l 61.69,0 c 35.03,0 20.86,-36.687 33.78,-36.687 2.92,0 4.59,1.66 4.59,5.422 0,11.258 -0.84,22.094 -0.84,32.937 0,13.348 0.84,27.516 0.84,42.118 0,3.332 -1.26,7.914 -4.59,7.914 -10.01,0 1.25,-33.356 -42.11,-33.356 l -45.03,0 c -16.68,0 -15.85,0 -15.85,14.176 l 0,77.558 c 0,27.934 -0.83,26.27 39.19,26.27 16.69,0 60.05,2.496 70.87,-11.68 6.7,-9.597 0,-29.597 10.03,-29.597 2.5,0 8.33,3.328 8.33,49.605 0,5.008 -0.83,9.184 -4.17,9.184 -12.92,0 -51.28,-1.676 -59.63,-1.676 -17.5,0 -39.19,1.676 -117.98,1.676 -12.1,0 -14.6,-1.676 -14.6,-5.008 0,-4.996 9.17,-5.84 12.51,-6.672 22.52,-3.336 22.52,-23.352 22.52,-42.109 l 0,-190.137 c 0,-19.598 -0.84,-31.27 -11.68,-36.27 -13.35,-6.671 -17.51,-5.836 -18.35,-10.851 0,-3.328 2.51,-4.149 6.26,-4.149 16.68,0 34.19,1.247 50.87,1.661 31.68,0.828 63.38,-1.661 95.06,-1.661 18.35,0 27.53,-0.847 40.86,14.161 10.01,10.847 20.84,25.433 20.84,40.453 0,0.832 -0.41,4.996 -3.32,4.996"
         style="fill:#222c77;fill-opacity:1;fill-rule:nonzero;stroke:none"
         id="path172"
         inkscape:connector-curvature="0" /><path
         d="m 2225.67,111.27 c -82.55,0 -133.01,74.636 -133.01,151.765 0,65.887 40.03,123.848 110.08,123.848 81.31,0 132.59,-73.813 132.59,-149.703 0,-77.125 -48.78,-125.91 -109.66,-125.91 z m -10.43,289.367 c -85.46,0 -153.01,-62.961 -153.01,-149.692 0,-87.976 55.45,-152.1833 145.94,-152.1833 92.97,0 157.6,60.4573 157.6,154.2653 0,86.321 -65.46,147.61 -150.53,147.61"
         style="fill:#222c77;fill-opacity:1;fill-rule:nonzero;stroke:none"
         id="path174"
         inkscape:connector-curvature="0" /><path
         d="m 2560.53,111.27 c -82.54,0 -132.99,74.636 -132.99,151.765 0,65.887 40.02,123.848 110.06,123.848 81.32,0 132.6,-73.813 132.6,-149.703 0,-77.125 -48.79,-125.91 -109.67,-125.91 z m -10.42,289.367 c -85.46,0 -153.01,-62.961 -153.01,-149.692 0,-87.976 55.45,-152.1833 145.93,-152.1833 92.98,0 157.61,60.4573 157.61,154.2653 0,86.321 -65.46,147.61 -150.53,147.61"
         style="fill:#222c77;fill-opacity:1;fill-rule:nonzero;stroke:none"
         id="path176"
         inkscape:connector-curvature="0" /><path
         d="m 2931.36,161.301 c -5.43,0 -19.6,-42.942 -115.92,-42.942 -35.02,0 -31.68,10.004 -31.68,34.602 l 0,202.644 c 0,36.274 30.43,25.844 30.43,35.442 0,5.004 -2.5,5.828 -7.92,5.828 -6.25,0 -16.25,-1.664 -40.03,-1.664 -20.43,0 -33.36,1.664 -42.12,1.664 -5.42,0 -8.34,-0.824 -8.34,-5.418 0,-8.332 35.02,-5.418 35.02,-27.098 l 0,-211.398 c 0,-19.594 -0.83,-31.27 -11.67,-36.27 -13.34,-6.671 -17.51,-5.836 -18.35,-10.851 0,-3.328 2.51,-4.149 6.26,-4.149 16.69,0 34.2,1.247 50.88,1.657 31.68,0.84 63.38,-1.657 95.06,-1.657 18.34,0 27.51,-0.847 40.86,14.161 10,10.839 20.85,25.433 20.85,40.453 0,0.832 -0.42,4.996 -3.33,4.996"
         style="fill:#222c77;fill-opacity:1;fill-rule:nonzero;stroke:none"
         id="path178"
         inkscape:connector-curvature="0" /><path
         d="m 552.906,457.941 2436.02,0 0,6.33203 -2436.02,0 0,-6.33203 z"
         style="fill:#9d6907;fill-opacity:1;fill-rule:nonzero;stroke:none"
         id="path180"
         inkscape:connector-curvature="0" /><path
         d="m 1073.86,524.43 18.1797,0 0,146.129 -18.1797,0 0,-146.129 z"
         style="fill:#9d6907;fill-opacity:1;fill-rule:nonzero;stroke:none"
         id="path182"
         inkscape:connector-curvature="0" /><path
         d="m 1479.51,540.641 -77.55,0 0,50.382 76.03,0 0,16.219 -76.03,0 0,47.094 77.55,0 0,16.215 -95.73,0 0,-146.121 95.73,0 0,16.211"
         style="fill:#9d6907;fill-opacity:1;fill-rule:nonzero;stroke:none"
         id="path184"
         inkscape:connector-curvature="0" /><path
         d="m 1249.31,524.43 58.72,146.121 -20.81,0 -49.31,-126.192 -49.29,126.192 -20.81,0 58.93,-146.121 22.57,0"
         style="fill:#9d6907;fill-opacity:1;fill-rule:nonzero;stroke:none"
         id="path186"
         inkscape:connector-curvature="0" /><path
         d="m 880.195,640.973 85.227,-116.543 17.531,0 0,146.121 -18.183,0 0,-114.145 -84.133,114.145 -18.625,0 0,-146.121 18.183,0 0,116.543"
         style="fill:#9d6907;fill-opacity:1;fill-rule:nonzero;stroke:none"
         id="path188"
         inkscape:connector-curvature="0" /><path
         d="m 711.289,521.797 c 39.66,0 59.813,23.219 59.813,59.594 l 0,89.16 -18.411,0 0,-88.942 c 0,-26.726 -14.457,-43.597 -41.402,-43.597 -26.949,0 -41.191,16.871 -41.191,43.597 l 0,88.942 -18.399,0 0,-89.379 c 0,-35.938 20.156,-59.375 59.59,-59.375"
         style="fill:#9d6907;fill-opacity:1;fill-rule:nonzero;stroke:none"
         id="path190"
         inkscape:connector-curvature="0" /><path
         d="m 2783.82,591.023 76.01,0 0,16.219 -76.01,0 0,47.094 77.54,0 0,16.215 -95.73,0 0,-146.121 18.19,0 0,66.593"
         style="fill:#9d6907;fill-opacity:1;fill-rule:nonzero;stroke:none"
         id="path192"
         inkscape:connector-curvature="0" /><path
         d="m 2291.6,524.43 18.18,0 0,61.773 57.4,84.348 -21.24,0 -45.36,-67.914 -45.35,67.914 -21.25,0 57.62,-84.348 0,-61.773"
         style="fill:#9d6907;fill-opacity:1;fill-rule:nonzero;stroke:none"
         id="path194"
         inkscape:connector-curvature="0" /><path
         d="m 2093.59,524.43 18.17,0 0,129.906 46.45,0 0,16.215 -110.86,0 0,-16.215 46.24,0 0,-129.906"
         style="fill:#9d6907;fill-opacity:1;fill-rule:nonzero;stroke:none"
         id="path196"
         inkscape:connector-curvature="0" /><path
         d="m 1588.61,654.336 38.33,0 c 17.31,0 29.36,-11.172 29.36,-27.813 0,-16.445 -12.05,-28.054 -29.36,-28.054 l -38.33,0 0,55.867 z m 0,-71.859 29.35,0 37.03,-58.047 21.47,0 -39.44,59.582 c 19.94,1.75 38.13,16.211 38.13,42.511 0,26.946 -19.28,44.028 -46.01,44.028 l -58.72,0 0,-146.121 18.19,0 0,58.047"
         style="fill:#9d6907;fill-opacity:1;fill-rule:nonzero;stroke:none"
         id="path198"
         inkscape:connector-curvature="0" /><path
         d="m 2607.67,656.758 c 32.65,0 53.9,-25.203 53.9,-59.383 0,-33.953 -21.25,-59.363 -53.9,-59.363 -32.86,0 -53.68,25.41 -53.68,59.363 0,34.18 20.82,59.383 53.68,59.383 z m 0,-134.961 c 43.17,0 72.74,32.426 72.74,75.578 0,43.168 -29.57,75.598 -72.74,75.598 -43.15,0 -72.52,-32.43 -72.52,-75.598 0,-43.152 29.37,-75.578 72.52,-75.578"
         style="fill:#9d6907;fill-opacity:1;fill-rule:nonzero;stroke:none"
         id="path200"
         inkscape:connector-curvature="0" /><path
         d="m 1944,524.43 18.1914,0 0,146.129 -18.1914,0 0,-146.129 z"
         style="fill:#9d6907;fill-opacity:1;fill-rule:nonzero;stroke:none"
         id="path202"
         inkscape:connector-curvature="0" /><path
         d="m 1808.32,538.012 c -20.59,0 -36.37,10.074 -45.78,21.023 l -10.96,-14.019 c 12.05,-13.582 30.89,-23.219 56.09,-23.219 39.43,0 53.89,21.902 53.89,42.941 0,54.551 -86.54,35.707 -86.54,68.571 0,13.8 12.71,23.218 30.01,23.218 16,0 31.34,-5.25 42.29,-17.515 l 10.96,13.363 c -12.28,12.922 -29.58,20.598 -51.71,20.598 -28.92,0 -50.39,-16.664 -50.39,-40.758 0,-52.141 86.54,-31.113 86.54,-68.793 0,-11.391 -8.33,-25.41 -34.4,-25.41"
         style="fill:#9d6907;fill-opacity:1;fill-rule:nonzero;stroke:none"
         id="path204"
         inkscape:connector-curvature="0" /><path
         d="m 1894.56,369.781 c 0,12.508 9.17,12.508 22.52,12.508 47.95,0 86.73,-26.684 86.73,-77.137 0,-37.523 -25.02,-57.953 -67.55,-57.953 -15.01,0 -23.76,2.5 -27.1,2.5 -2.09,0 -4.17,-0.832 -4.17,-3.746 0,-7.515 24.17,-9.601 28.34,-9.601 88.82,0 101.32,63.382 101.32,80.066 0,62.121 -58.78,80.457 -111.74,80.457 -20.01,0 -26.68,-1.664 -47.53,-1.664 -24.19,0 -38.79,1.664 -42.54,1.664 -3.32,0 -5.41,-2.914 -5.41,-6.242 0,-15.02 34.2,10.418 34.2,-39.617 l 0,-199.723 c 0,-46.277 -32.53,-33.348 -32.53,-44.609 0,-3.746 4.16,-4.993 6.67,-4.993 12.1,0 25.86,1.657 45.45,1.657 24.6,0 30.85,-1.657 45.03,-1.657 10.43,0 12.09,2.067 12.09,4.993 0,14.168 -43.78,-7.5082 -43.78,52.535 l 0,210.562"
         style="fill:#222c77;fill-opacity:1;fill-rule:nonzero;stroke:none"
         id="path206"
         inkscape:connector-curvature="0" /><path
         d="m 1612.32,367.695 c 0,16.258 8.76,15.43 23.78,15.43 40.85,0 79.63,-17.094 79.63,-67.961 0,-51.707 -40.03,-59.215 -57.96,-59.215 -19.6,0 -45.45,-2.09 -45.45,5.84 l 0,105.906 z m 82.14,-115.074 c 29.18,11.672 52.54,39.606 52.54,72.137 0,80.457 -92.15,72.129 -98.82,72.129 -21.68,0 -45.45,-1.676 -69.63,-1.676 -21.26,0 -19.19,1.676 -26.69,1.676 -5,0 -8.33,-2.508 -8.33,-5.008 0,-14.184 35.85,2.918 35.85,-37.109 l 0,-212.231 c 0,-31.684 -30.44,-25.848 -30.44,-36.277 0,-2.504 1.67,-4.571 4.17,-4.571 15.85,0 31.7,1.661 47.54,1.661 34.59,0 44.2,-1.661 47.94,-1.661 3.34,0 7.09,-0.847 7.09,3.321 0,14.183 -43.36,1.25 -43.36,37.109 l 0,87.984 c 0,4.165 -2.5,11.672 10.83,11.672 46.7,0 40.45,1.246 55.47,-22.101 l 46.27,-72.965 c 15.85,-23.77 32.12,-45.02 62.54,-45.02 3.76,0 27.12,0 27.12,4.993 0,10.007 -20.43,-5.422 -50.46,40.437 l -69.63,105.5"
         style="fill:#222c77;fill-opacity:1;fill-rule:nonzero;stroke:none"
         id="path208"
         inkscape:connector-curvature="0" /><flowRoot
         xml:space="preserve"
         id="flowRoot4285"
         style="font-style:normal;font-weight:normal;font-size:20px;line-height:125%;font-family:sans-serif;letter-spacing:0px;word-spacing:0px;fill:#000000;fill-opacity:1;stroke:none;stroke-width:1px;stroke-linecap:butt;stroke-linejoin:miter;stroke-opacity:1"
         transform="matrix(8,0,0,-8,0,789.5)"><flowRegion
           id="flowRegion4287"><rect
             id="rect4289"
             width="357.53125"
             height="73.609375"
             x="419.57343"
             y="16.665625"
             style="font-size:20px" /></flowRegion><flowPara
           id="flowPara4291"></flowPara></flowRoot></g><text
       xml:space="preserve"
       style="font-style:normal;font-weight:normal;font-size:32px;line-height:125%;font-family:sans-serif;text-align:start;letter-spacing:0px;word-spacing:0px;text-anchor:start;fill:#222c77;fill-opacity:1;stroke:none;stroke-width:1px;stroke-linecap:butt;stroke-linejoin:miter;stroke-opacity:1"
       x="329.08881"
       y="-47.192501"
       id="text4293"
       sodipodi:linespacing="125%"
       transform="scale(1,-1)"><tspan
         sodipodi:role="line"
         x="329.08881"
         y="-47.192501"
         style="font-style:normal;font-variant:normal;font-weight:normal;font-stretch:normal;font-size:28px;font-family:times;-inkscape-font-specification:times;text-align:start;text-anchor:start;fill:#222c77;fill-opacity:1"
         id="tspan4301">Institute for Risk </tspan><tspan
         sodipodi:role="line"
         x="329.08881"
         y="-12.192499"
         style="font-style:normal;font-variant:normal;font-weight:normal;font-stretch:normal;font-size:28px;font-family:times;-inkscape-font-specification:times;text-align:start;text-anchor:start;fill:#222c77;fill-opacity:1"
         id="tspan4305">and Uncertainty</tspan></text>
</g></svg>